<?xml version="1.0" encoding="utf-8"?>
<svg width="1920.0005px" height="1096px" viewBox="0 0 1920.0005 1096" version="1.1" xmlns:xlink="http://www.w3.org/1999/xlink" xmlns="http://www.w3.org/2000/svg">
  <path d="M0 332L1920 332L1920 1096L0 1096L0 332Z" id="Rectangle-9" fill="#B8ADFF" fill-rule="evenodd" stroke="none" />
  <path d="M0 0L1920 0L1920 440.001C1920 440.001 1783.28 514.376 1510.99 440.001C1238.7 365.627 1225.82 497.583 960 480.001C694.18 462.419 617.483 369.366 398 344.501C178.516 319.636 0 440.001 0 440.001L0 0Z" id="Rectangle-4" fill="#EDEBFF" fill-rule="evenodd" stroke="none" />
  <path d="M1606.04 443.353L1806.05 398.773Q1806.67 398.635 1807.3 398.537Q1807.92 398.438 1808.56 398.379Q1809.19 398.321 1809.83 398.303Q1810.46 398.285 1811.1 398.307Q1811.73 398.329 1812.37 398.392Q1813 398.454 1813.63 398.557Q1814.25 398.66 1814.87 398.802Q1815.49 398.944 1816.1 399.126Q1816.71 399.307 1817.31 399.527Q1817.91 399.747 1818.49 400.004Q1819.07 400.261 1819.63 400.555Q1820.2 400.849 1820.74 401.177Q1821.29 401.506 1821.81 401.869Q1822.33 402.232 1822.83 402.627Q1823.33 403.023 1823.8 403.449Q1824.27 403.875 1824.71 404.33Q1825.16 404.786 1825.57 405.268Q1825.99 405.751 1826.37 406.259Q1826.75 406.767 1827.1 407.298Q1827.45 407.829 1827.77 408.381Q1828.08 408.934 1828.36 409.505Q1828.64 410.076 1828.88 410.664Q1829.13 411.252 1829.33 411.854Q1829.54 412.456 1829.7 413.07Q1829.87 413.684 1829.99 414.307Q1830.12 414.93 1830.21 415.56Q1830.3 416.19 1830.34 416.824Q1830.39 417.459 1830.39 418.094Q1830.4 418.73 1830.37 419.365Q1830.33 420 1830.26 420.632Q1830.18 421.264 1830.07 421.889Q1829.96 422.515 1829.8 423.132L1785.46 600.969Q1785.31 601.587 1785.12 602.193Q1784.92 602.799 1784.69 603.391Q1784.46 603.984 1784.19 604.56Q1783.92 605.137 1783.62 605.696Q1783.32 606.254 1782.98 606.792Q1782.64 607.33 1782.27 607.846Q1781.89 608.361 1781.49 608.852Q1781.08 609.343 1780.65 609.807Q1780.21 610.271 1779.75 610.706Q1779.29 611.142 1778.8 611.547Q1778.31 611.952 1777.79 612.325Q1777.28 612.698 1776.74 613.038Q1776.2 613.378 1775.64 613.682Q1775.09 613.987 1774.51 614.256Q1773.93 614.525 1773.34 614.757Q1772.75 614.988 1772.14 615.182Q1771.54 615.375 1770.92 615.53Q1770.3 615.685 1769.68 615.8Q1769.05 615.915 1768.42 615.99Q1767.79 616.065 1767.15 616.1Q1766.52 616.135 1765.88 616.13Q1765.25 616.124 1764.61 616.078Q1763.98 616.032 1763.35 615.946Q1762.72 615.86 1762.1 615.734Q1761.47 615.608 1760.86 615.443Q1760.24 615.277 1759.64 615.073Q1759.04 614.869 1758.45 614.628Q1757.86 614.386 1757.29 614.107Q1756.72 613.828 1756.17 613.514Q1755.61 613.199 1755.08 612.85Q1754.55 612.501 1754.04 612.119Q1753.53 611.737 1753.05 611.324L1597.38 478.065Q1596.86 477.615 1596.36 477.13Q1595.87 476.644 1595.41 476.126Q1594.95 475.607 1594.53 475.059Q1594.11 474.51 1593.73 473.933Q1593.34 473.356 1593 472.754Q1592.66 472.153 1592.36 471.529Q1592.06 470.905 1591.81 470.261Q1591.55 469.618 1591.34 468.959Q1591.13 468.299 1590.96 467.627Q1590.8 466.955 1590.68 466.272Q1590.56 465.59 1590.49 464.902Q1590.42 464.213 1590.4 463.521Q1590.38 462.829 1590.4 462.138Q1590.43 461.446 1590.5 460.758Q1590.58 460.069 1590.7 459.388Q1590.82 458.706 1590.98 458.034Q1591.15 457.363 1591.37 456.704Q1591.58 456.046 1591.84 455.404Q1592.1 454.762 1592.4 454.139Q1592.7 453.516 1593.04 452.916Q1593.39 452.315 1593.77 451.74Q1594.16 451.165 1594.58 450.618Q1595.01 450.071 1595.47 449.555Q1595.93 449.038 1596.43 448.555Q1596.92 448.072 1597.45 447.624Q1597.98 447.176 1598.53 446.766Q1599.09 446.356 1599.68 445.985Q1600.26 445.614 1600.87 445.284Q1601.48 444.955 1602.11 444.668Q1602.74 444.382 1603.39 444.139Q1604.04 443.897 1604.7 443.7Q1605.36 443.503 1606.04 443.353Z" id="Triangle" fill="#FFEBD6" fill-rule="evenodd" stroke="none" />
</svg>