<?xml version="1.0" encoding="utf-8"?>
<svg width="263.25px" height="108px" viewBox="0 0 263.25 108" version="1.1" xmlns:xlink="http://www.w3.org/1999/xlink" xmlns="http://www.w3.org/2000/svg">
  <defs>
    <path d="M0 0L263.25 0L263.25 108L0 108L0 0Z" id="path_1" />
    <clipPath id="mask_1">
      <use xlink:href="#path_1" />
    </clipPath>
  </defs>
  <g id="Logo-64x64-2">
    <g id="Mask-Group">
      <path d="M0 0L263.25 0L263.25 108L0 108L0 0Z" id="artboard_1" fill="none" fill-rule="evenodd" stroke="none" />
      <g clip-path="url(#mask_1)">
        <g id="Logo-Sa-Tekstom-#1">
          <path d="M0 0L263.25 0L263.25 108L0 108L0 0Z" id="artboard_1" fill="#FFFFFF" fill-opacity="0" fill-rule="evenodd" stroke="none" />
          <g id="Group" transform="translate(110.944824 38.385693)">
            <path d="M24.6986 19.2604C25.2204 17.8596 25.4814 16.3765 25.4814 14.8109C25.4814 13.2591 25.2239 11.8103 24.709 10.4644C24.194 9.1187 23.4627 7.95139 22.5151 6.96252C21.5675 5.97375 20.4208 5.19441 19.075 4.62448C17.7291 4.05467 16.2254 3.76976 14.5637 3.76976L13.7604 3.76976L13.7604 0L11.7416 0L11.7416 3.76976L10.9383 3.76976C9.26284 3.76976 7.75222 4.06159 6.4064 4.64524C5.06057 5.22889 3.91388 6.02196 2.96631 7.02445C2.01874 8.02694 1.28746 9.19767 0.772476 10.5366C0.257492 11.8756 0 13.3004 0 14.8109C0 16.4039 0.260929 17.9008 0.782763 19.3017C1.30462 20.7024 2.04276 21.9246 2.99721 22.9683C3.95164 24.012 5.09834 24.8325 6.43729 25.43C7.77626 26.0274 9.26285 26.3261 10.8971 26.3261L11.7416 26.3261L11.7416 30.7961L13.7604 30.7961L13.7604 26.3261L14.6049 26.3261C16.2391 26.3261 17.7257 26.0205 19.0647 25.4093C20.4036 24.7982 21.5469 23.9708 22.4945 22.9271C23.4421 21.8835 24.1768 20.6612 24.6986 19.2604L24.6986 19.2604ZM10.9384 5.62366L11.7418 5.62366L11.7418 24.472L10.8972 24.472C9.63378 24.472 8.46648 24.2489 7.39531 23.8026C6.32415 23.3563 5.40061 22.7143 4.62471 21.8765C3.8488 21.0388 3.24454 20.0295 2.81195 18.8484C2.37937 17.6674 2.16307 16.3353 2.16309 14.8521C2.16307 13.4925 2.37937 12.2463 2.81195 11.1134C3.24454 9.98045 3.85222 9.00884 4.635 8.19861C5.41777 7.38839 6.34474 6.75664 7.41591 6.30338C8.48708 5.85023 9.66124 5.62366 10.9384 5.62366L10.9384 5.62366ZM22.6901 11.0618C23.1227 12.2016 23.339 13.4651 23.339 14.8521C23.339 16.3078 23.1227 17.6297 22.6901 18.8176C22.2575 20.0054 21.6532 21.0182 20.8773 21.8559C20.1014 22.6937 19.1778 23.3392 18.1067 23.7923C17.0355 24.2455 15.8682 24.472 14.6048 24.472L13.7603 24.472L13.7603 5.62366L14.5636 5.62366C15.8545 5.62366 17.0355 5.84337 18.1067 6.28279C19.1778 6.72222 20.1014 7.34367 20.8773 8.14715C21.6532 8.95051 22.2575 9.92206 22.6901 11.0618L22.6901 11.0618ZM32.8765 26.6351L32.959 26.6351C34.4696 29.4777 36.8042 30.8991 39.9628 30.8991C42.7918 30.8991 45.068 29.8107 46.7915 27.6341C48.515 25.4574 49.3767 22.6044 49.3767 19.0751C49.3767 15.9028 48.6248 13.3931 47.121 11.5459C45.6172 9.69892 43.5264 8.77541 40.8486 8.77541C39.1594 8.77541 37.611 9.19767 36.2034 10.0422C34.7958 10.8868 33.7144 12.0849 32.959 13.6368L32.8765 13.6368L32.8765 9.29026L30.9814 9.29026L30.9814 40.0865L32.8765 40.0865L32.8765 26.6351L32.8765 26.6351ZM57.0705 26.7174C58.4095 28.3516 60.2463 29.1687 62.5809 29.1687C64.9429 29.1687 67.25 28.2967 69.5022 26.5526L69.5022 28.5713C67.3187 30.1232 64.8811 30.8991 62.1894 30.8991C59.4704 30.8991 57.2731 29.924 55.5977 27.974C53.9222 26.0239 53.0845 23.2704 53.0845 19.7136C53.0845 16.6374 53.9599 14.0453 55.7109 11.9373C57.4619 9.82936 59.7381 8.77541 62.5397 8.77541C65.1627 8.77541 67.1745 9.69549 68.5752 11.5357C69.976 13.3759 70.6763 15.8891 70.6763 19.0751L70.6763 19.9197L55.062 19.9197C55.062 22.8173 55.7315 25.0833 57.0705 26.7174L57.0705 26.7174ZM83.963 30.8991C86.1328 30.8991 88.0005 30.4184 89.566 29.4571L89.566 27.4797C88.0005 28.6057 86.1603 29.1687 84.0454 29.1687C81.7382 29.1687 79.8809 28.3379 78.4733 26.6763C77.0657 25.0145 76.3619 22.8172 76.3619 20.0844C76.3619 17.2554 77.1309 14.9518 78.669 13.1734C80.2071 11.395 82.2121 10.5058 84.6839 10.5058C86.4829 10.5058 88.1377 10.9726 89.6484 11.9064L89.6484 9.76411C88.1377 9.10498 86.5791 8.77541 84.9723 8.77541C81.8687 8.77541 79.3281 9.84314 77.3506 11.9786C75.373 14.1141 74.3843 16.8573 74.3843 20.2081C74.3843 23.3941 75.2632 25.9724 77.021 27.9431C78.7788 29.9137 81.0928 30.8991 83.963 30.8991L83.963 30.8991ZM114.152 27.8607C115.944 29.8863 118.378 30.8991 121.454 30.8991C124.544 30.8991 126.978 29.8829 128.757 27.8504C130.535 25.8179 131.424 23.1606 131.424 19.8785C131.424 16.404 130.552 13.6849 128.808 11.7211C127.064 9.75731 124.688 8.77541 121.681 8.77541C118.618 8.77541 116.15 9.76417 114.275 11.7417C112.401 13.7192 111.463 16.4589 111.463 19.9608C111.463 23.2017 112.359 25.835 114.152 27.8607L114.152 27.8607ZM106.519 30.384L96.6109 20.0432L96.5285 20.0432L96.5285 30.384L94.6333 30.384L94.6333 9.29026L96.5285 9.29026L96.5285 19.3635L96.6109 19.3635L106.396 9.29026L108.847 9.29026L98.6296 19.5901L109.177 30.384L106.519 30.384L106.519 30.384ZM32.8765 21.444L32.8765 18.7867C32.8765 16.5619 33.5494 14.6255 34.8952 12.9776C36.241 11.3297 38.1431 10.5058 40.6013 10.5058C42.6612 10.5058 44.3092 11.2817 45.5452 12.8335C46.7811 14.3852 47.3991 16.4795 47.3991 19.1162C47.3991 22.1237 46.7262 24.551 45.3803 26.3982C44.0345 28.2452 42.2835 29.1687 40.1275 29.1687C37.9577 29.1687 36.2067 28.4099 34.8746 26.8924C33.5425 25.375 32.8765 23.5589 32.8765 21.444L32.8765 21.444ZM68.6991 18.1893C68.6166 15.7585 68.0329 13.8702 66.9481 12.5244C65.8632 11.1786 64.3662 10.5058 62.4573 10.5058C60.4798 10.5058 58.8422 11.1683 57.5445 12.4935C56.2467 13.8187 55.4467 15.7173 55.1445 18.1893L68.6991 18.1893L68.6991 18.1893ZM115.655 13.0188C117.131 11.3434 119.112 10.5058 121.598 10.5058C124.097 10.5058 126.03 11.3091 127.397 12.9159C128.763 14.5226 129.446 16.8297 129.446 19.8371C129.446 22.7623 128.76 25.0488 127.386 26.6968C126.013 28.3447 124.056 29.1687 121.515 29.1687C119.016 29.1687 117.045 28.331 115.603 26.6557C114.161 24.9802 113.44 22.7623 113.44 20.002C113.44 17.022 114.179 14.6943 115.655 13.0188L115.655 13.0188Z" id="Фреско" fill="#000000" fill-rule="evenodd" stroke="none" />
          </g>
          <path d="M13.5 54C13.5 31.6325 31.6325 13.5 54 13.5C76.3675 13.5 94.5 31.6325 94.5 54C94.5 76.3675 76.3675 94.5 54 94.5C31.6325 94.5 13.5 76.3675 13.5 54L13.5 54Z" id="Oval" fill="#B8B8FF" fill-rule="evenodd" stroke="#F8F7FF" stroke-width="3" />
          <g id="Slovo-F" transform="translate(33.75 20.249996)">
            <path d="M20.25 13.5C10.125 13.5 0 13.6372 0 33.75C0 53.8628 10.125 54 20.25 54C30.375 54 40.5 53.8628 40.5 33.75C40.5 13.6372 30.375 13.5 20.25 13.5L20.25 13.5Z" id="Vector" fill="none" fill-rule="evenodd" stroke="#F8F7FF" stroke-width="3" />
            <g id="Group" transform="translate(18.5625 0)">
              <path d="M1.6875 0L1.6875 67.5" id="Vector-2" fill="none" fill-rule="evenodd" stroke="#F8F7FF" stroke-width="3" />
            </g>
          </g>
          <g id="Group" transform="translate(109.6875 79.31249)">
            <path d="M0 1.6875L131.625 1.6875" id="Vector#1" fill="none" fill-rule="evenodd" stroke="#F8F7FF" stroke-width="1" />
          </g>
        </g>
      </g>
    </g>
  </g>
</svg>