<?xml version="1.0" encoding="utf-8"?>
<svg width="350px" height="239.23071px" viewBox="0 0 350 239.23071" version="1.1" xmlns:xlink="http://www.w3.org/1999/xlink" xmlns="http://www.w3.org/2000/svg">
  <defs>
    <path d="M1.84736e-06 4.34204e-05L350 4.34204e-05L350 239.231L1.84736e-06 239.231L1.84736e-06 4.34204e-05Z" id="path_1" />
    <clipPath id="mask_1">
      <use xlink:href="#path_1" />
    </clipPath>
  </defs>
  <g id="undraw_share_link_re_54rx">
    <path d="M1.84736e-06 4.34204e-05L350 4.34204e-05L350 239.231L1.84736e-06 239.231L1.84736e-06 4.34204e-05Z" id="Background" fill="#FFFFFF" fill-opacity="0" fill-rule="evenodd" stroke="none" />
    <g clip-path="url(#mask_1)">
      <path d="M121.607 229.158C121.036 229.185 120.51 228.852 120.29 228.325C120.07 227.798 120.202 227.19 120.621 226.802L120.715 226.432C120.702 226.402 120.69 226.372 120.678 226.343C120.104 224.988 118.773 224.11 117.302 224.115C115.831 224.121 114.506 225.009 113.943 226.368C112.841 229.021 111.439 231.678 111.094 234.483C110.942 235.723 111.006 236.98 111.283 238.198C108.696 232.554 107.353 226.421 107.344 220.212C107.344 218.654 107.43 217.097 107.603 215.549C107.747 214.28 107.945 213.02 108.199 211.769C109.586 204.981 112.563 198.618 116.886 193.203C118.979 192.062 120.671 190.306 121.735 188.173C122.12 187.406 122.393 186.588 122.544 185.743C122.308 185.774 121.654 182.179 121.832 181.959C121.503 181.459 120.914 181.211 120.555 180.724C118.768 178.302 116.306 178.725 115.021 182.017C112.276 183.402 112.249 185.7 113.934 187.91C115.006 189.316 115.153 191.218 116.093 192.723C115.996 192.847 115.896 192.967 115.799 193.091C114.031 195.365 112.489 197.807 111.197 200.381C111.512 197.497 111.137 194.579 110.103 191.868C109.056 189.342 107.093 187.214 105.364 185.03C103.288 182.406 99.0296 183.551 98.6637 186.877C98.6602 186.909 98.6567 186.941 98.6534 186.973C98.9101 187.118 99.1615 187.272 99.4074 187.435C100.04 187.857 100.348 188.624 100.183 189.367C100.019 190.109 99.4155 190.675 98.6639 190.791L98.6263 190.796C98.7178 191.722 98.8794 192.639 99.11 193.54C96.8922 202.117 101.68 205.24 108.517 205.381C108.668 205.458 108.815 205.535 108.966 205.609C107.667 209.288 106.853 213.12 106.543 217.008C106.368 219.303 106.378 221.607 106.574 223.9L106.563 223.819C106.067 221.269 104.707 218.969 102.712 217.306C99.7496 214.872 95.5635 213.976 92.3671 212.02C91.6735 211.574 90.7845 211.572 90.0887 212.014C89.3929 212.456 89.017 213.262 89.1253 214.079C89.1295 214.107 89.1339 214.136 89.1383 214.164C89.6148 214.358 90.0788 214.582 90.5275 214.834C90.7843 214.979 91.0356 215.132 91.2815 215.295C91.9139 215.717 92.222 216.485 92.0575 217.227C91.893 217.97 91.2896 218.535 90.538 218.651L90.5004 218.657C90.4733 218.661 90.4501 218.665 90.423 218.668C91.2372 220.612 92.3799 222.402 93.8011 223.958C95.1877 231.445 101.144 232.155 107.515 229.975L107.518 229.975C108.217 233.013 109.23 235.969 110.54 238.797L121.336 238.797C121.375 238.677 121.41 238.554 121.445 238.434C120.445 238.496 119.442 238.437 118.457 238.256C119.258 237.273 120.059 236.282 120.86 235.299C120.878 235.281 120.895 235.262 120.911 235.241C121.317 234.738 121.727 234.239 122.133 233.736L122.134 233.736C122.155 232.194 121.978 230.655 121.607 229.158L121.607 229.158Z" id="Shape" fill="#F2F2F2" stroke="none" />
      <path d="M38.5686 212.83L41.5474 215.978L55.3787 205.731L50.9825 201.084L38.5686 212.83L38.5686 212.83Z" id="Polygon" fill="#A0616A" fill-rule="evenodd" stroke="none" />
      <path d="M43.4499 214.571L40.0776 211.403L39.2495 210.627L30.6643 217.491L32.8976 219.851L35.5263 218.166L34.3187 221.354L40.2398 227.612C40.8221 228.228 41.7373 228.394 42.4988 228.021C43.2603 227.649 43.6911 226.824 43.5622 225.987L42.2843 217.719L44.5362 215.59L43.4499 214.571Z" id="Shape" fill="#2F2E41" stroke="none" />
      <path d="M104.034 98.2012L103.09 108.511C103.09 108.511 101.441 116.279 102.582 115.65C103.724 115.02 101.677 117.854 102.216 120.311C102.755 122.768 97.6123 141.093 99.9417 139.195C102.271 137.297 98.5956 150.411 96.2709 156.881C95.5591 158.881 94.8277 160.905 94.0917 162.915C93.9465 163.322 93.801 163.723 93.6511 164.13C92.697 166.745 91.7429 169.322 90.8278 171.753C90.697 172.092 90.571 172.431 90.4452 172.765C90.4402 172.774 90.4402 172.784 90.4355 172.784C87.4232 180.712 84.842 186.949 83.8105 187.981C83.2731 188.518 74.745 194.678 66.1492 200.848C57.1272 207.323 48.0324 213.812 48.0324 213.812L39.5382 204.901C39.5382 204.901 39.7416 204.843 40.1242 204.727C40.8312 204.524 42.1388 204.141 43.8532 203.633C51.001 201.526 41.9208 198.247 48.4103 195.904C50.2407 195.245 51.4611 194.732 51.7371 194.46C53.3497 192.887 55.5145 189.133 56.5363 190.707C57.5581 192.281 62.1927 180.586 63.5292 179.429C64.2459 178.804 66.585 175.884 68.59 173.317C70.3138 171.109 71.7957 169.157 71.7957 169.157C71.7957 169.157 71.8248 168.111 71.8683 166.445C71.9314 163.98 72.0234 160.15 72.1203 156.314C72.1154 156.309 72.1154 156.309 72.1203 156.309C72.1542 154.866 72.188 153.423 72.222 152.052C72.2462 150.992 72.2703 149.97 72.2946 149.026C72.3575 146.198 72.401 144.057 72.401 143.524C72.401 141.776 72.401 143.137 73.7813 142.081C73.9874 141.919 74.1831 141.745 74.3672 141.558C74.6623 141.293 74.9345 141.003 75.1809 140.691C75.2826 140.474 74.6482 140.769 73.8248 140.604C73.379 140.515 72.9666 140.304 72.6335 139.994C70.8997 138.435 72.7692 133.64 72.7692 133.64C68.8271 125.756 69.113 119.291 70.9579 114.308C72.3375 110.732 74.5273 107.525 77.3552 104.938C78.4314 103.912 79.604 102.992 80.8567 102.191L80.9778 101.538L82.3095 94.327C83.0177 93.9379 83.7542 93.6029 84.5128 93.3246C86.8782 92.4758 89.4164 92.223 91.9027 92.5885C94.3739 92.9461 96.7663 93.7206 98.9782 94.8791C100.786 95.7874 102.483 96.9022 104.034 98.2011L104.034 98.2012Z" id="Shape" fill="#2F2E41" stroke="none" />
      <path d="M66.8396 228.893L71.155 229.294L74.7914 212.469L68.4217 211.876L66.8396 228.893L66.8396 228.893Z" id="Polygon" fill="#A0616A" fill-rule="evenodd" stroke="none" />
      <path d="M79.2681 235.488L72.8562 230.117L73.1468 227.028L71.6554 226.979L67.0354 226.829L67.0305 226.829L65.8973 226.79L63.9747 237.609L67.2144 237.909L68.0716 234.907L69.2679 238.103L70.9822 238.263L77.8443 238.902C77.9025 238.907 77.9654 238.912 78.0236 238.912C78.5754 238.913 79.101 238.676 79.4667 238.263C79.7476 237.956 79.9194 237.564 79.9557 237.149C80.0133 236.516 79.7562 235.895 79.2681 235.488L79.2681 235.488Z" id="Shape" fill="#2F2E41" stroke="none" />
      <path d="M90.8278 171.753C89.186 180.688 82.2366 201.637 78.0332 213.899C76.1203 219.502 74.7838 223.294 74.7838 223.294L72.6045 222.607L72.5996 222.607L68.9143 221.444L67.5729 221.018L67.5679 221.018L65.9408 220.5C65.9408 220.5 66.1297 210.495 66.1491 200.848C66.1636 196.804 66.1442 192.819 66.0668 189.661C65.9796 186.218 65.8294 183.753 65.5826 183.264C64.5606 181.259 66.2702 181.046 68.0765 180.542C69.8876 180.034 68.4736 179.269 67.7713 177.642C67.2969 176.557 68.2314 175.109 68.8949 174.285C69.078 174.054 69.2736 173.832 69.4809 173.622C69.4809 173.622 69.1612 173.511 68.5899 173.317C70.3137 171.109 71.7956 169.157 71.7956 169.157C71.7956 169.157 71.8247 168.111 71.8682 166.445C71.9314 163.98 72.0233 160.149 72.1203 156.314C72.1153 156.309 72.1153 156.309 72.1203 156.309C72.1541 154.866 72.1879 153.423 72.222 152.052C74.9919 154.178 77.6845 156.261 80.1253 158.188C80.1313 158.193 80.1349 158.2 80.1349 158.208C85.9994 162.842 90.4017 166.561 91.0214 167.743C91.3023 168.276 91.2054 169.7 90.8278 171.753L90.8278 171.753Z" id="Shape" fill="#2F2E41" stroke="none" />
      <path d="M235.204 13.992C236.882 13.835 238.381 15.0431 238.584 16.7168C238.601 16.8808 238.605 17.0459 238.595 17.2104L248.581 21.475L248.2 27.3038L235.151 19.9827C233.755 19.7889 232.665 18.6784 232.496 17.2787C232.316 15.6481 233.492 14.1801 235.123 13.9999C235.15 13.9969 235.177 13.9943 235.204 13.992L235.204 13.992Z" id="Shape" fill="#FFB6B6" stroke="none" />
      <path d="M303.148 49.9723C302.902 48.8423 302.443 47.7692 301.797 46.8099C301.618 46.5369 301.422 46.2749 301.211 46.0253C300.427 45.0908 299.695 44.2336 299.017 43.4684C298.606 42.9889 298.204 42.5434 297.826 42.132C295.632 39.725 294.194 38.4514 293.535 38.3448C293.216 38.2916 292.901 38.2528 292.596 38.214C291.032 38.0204 289.898 37.8799 289.865 36.2285C289.861 35.9918 289.877 35.7554 289.913 35.5214C289.972 35.1286 290.057 34.7402 290.17 34.3592C290.234 34.1432 290.284 33.9232 290.32 33.7006C290.368 33.415 290.349 33.2017 290.194 33.071C290 32.9114 289.676 32.9355 289.065 33.1776C288.969 33.2164 288.857 33.2599 288.741 33.3131C288.702 33.3278 288.664 33.3471 288.62 33.3665C288.543 33.4004 288.455 33.4391 288.368 33.4826C287.637 33.8314 286.508 33.8749 285.22 33.7442C281.419 33.3568 276.276 31.4391 276.213 31.4148L243.824 18.8286L243.524 19.3129L242.812 20.4654L242.566 20.8624L242.285 21.3176L241.059 23.2935L240.44 24.2911L250.9 32.1799L252.038 33.0371L253.016 33.7782L272.988 48.8439L280.436 53.7592L282.097 54.8536L289.177 59.522C291.233 60.8804 293.75 61.3503 296.158 60.8251C298.565 60.2998 300.659 58.824 301.962 56.7327C303.219 54.7184 303.644 52.2944 303.148 49.9723L303.148 49.9723Z" id="Shape" fill="#E6E6E6" stroke="none" />
      <path d="M349.516 239.231L0.484276 239.231C0.31126 239.231 0.151389 239.138 0.0648812 238.989C-0.0216271 238.839 -0.0216271 238.654 0.0648812 238.504C0.151389 238.354 0.31126 238.262 0.484276 238.262L349.516 238.262C349.689 238.262 349.849 238.354 349.935 238.504C350.022 238.654 350.022 238.839 349.935 238.989C349.849 239.138 349.689 239.231 349.516 239.231L349.516 239.231Z" id="Shape" fill="#E6E6E6" stroke="none" />
      <path d="M79.8641 80.7727L80.7717 89.1904L80.238 100.228L104.687 97.3237L106.984 80.7727L104.057 80.8017L79.8641 80.7727L79.8641 80.7727Z" id="Polygon" fill="#FFB6B6" fill-rule="evenodd" stroke="none" />
      <path d="M100.66 53.5846L91.4591 46.3205L91.4591 46.3205L86.6291 46.0397L79.4622 50.631L77.7073 59.584L73.5569 69.6657L79.6444 96.8731C79.6444 96.8731 80.2154 98.8255 78.7192 99.06C77.223 99.2945 77.4024 102.172 77.4024 102.172C77.4024 102.172 77.7071 104.666 76.2543 104.886C74.8014 105.106 70.9275 105.106 74.3174 109.464C77.7073 113.823 104.52 97.3382 104.52 97.3382L108.414 76.9047C108.414 76.9047 115.966 66.761 107.833 60.9515L100.66 53.5846Z" id="Shape" fill="#E6E6E6" stroke="none" />
      <path d="M60.4927 115.358C59.672 114.334 59.3471 112.999 59.6054 111.712C59.8636 110.425 60.6786 109.319 61.831 108.691L73.4047 69.8498L80.6416 73.4933L68.0376 110.722C68.9853 112.773 68.2492 115.209 66.3243 116.391C64.3994 117.574 61.8941 117.13 60.4927 115.358L60.4927 115.358Z" id="Shape" fill="#A0616A" stroke="none" />
      <path d="M81.1243 50.2716C81.1243 50.2716 79.0555 49.1721 77.6405 53.9298C76.5077 57.7387 67.3155 80.4259 67.1982 85.9418C65.6421 86.2715 64.507 87.6134 64.4397 89.2026L75.805 90.7256C77.7911 89.0506 78.3121 86.7882 77.5437 86.1167L80.0113 79.377L90.3062 57.9337L82.6338 51.0398L81.1243 50.2716Z" id="Shape" fill="#E6E6E6" stroke="none" />
      <path d="M141.853 102.591C142.15 101.313 141.866 99.9683 141.076 98.9198C140.287 97.8712 139.074 97.2262 137.763 97.1582L111.213 66.8362L105.581 73.5563L133.045 101.674C133.078 103.933 134.794 105.81 137.042 106.044C139.289 106.278 141.356 104.795 141.853 102.591L141.853 102.591Z" id="Shape" fill="#A0616A" stroke="none" />
      <path d="M95.1041 52.827C95.1041 52.827 96.4939 50.941 99.8272 54.6189C102.496 57.5633 120.595 74.0444 123.086 78.9672C124.632 78.5916 126.235 79.3106 126.983 80.7145L117.394 87.0026C114.879 86.3511 113.431 84.5365 113.834 83.5988L108.694 78.589L90.1384 63.7063L94.0752 54.1724L95.1041 52.827Z" id="Shape" fill="#E6E6E6" stroke="none" />
      <path d="M126.312 68.2818C126.312 30.8377 156.666 0.483328 194.11 0.483328C231.554 0.483328 261.909 30.8377 261.909 68.2818C261.909 105.726 231.554 136.08 194.11 136.08C156.666 136.08 126.312 105.726 126.312 68.2818Z" id="Circle" fill="#6C63FF" fill-rule="evenodd" stroke="none" />
      <path d="M190.903 92.2774C184.436 98.7451 173.949 98.7451 167.482 92.2774L167.482 92.2774C161.983 86.7765 161.052 78.1909 165.244 71.6392L161.6 75.3565C155.132 81.8242 155.132 92.3105 161.6 98.7782L161.6 98.7782C168.068 105.246 178.554 105.246 185.022 98.7782L193.096 90.3942L193.219 89.873L190.903 92.2774Z" id="Shape" fill="#000000" fill-opacity="0.2" stroke="none" />
      <path d="M198.595 40.4809C206.155 35.332 216.457 37.2865 221.606 44.8464L221.606 44.8464C225.983 51.2757 225.298 59.8845 219.959 65.5401L224.231 62.567C231.791 57.4181 233.745 47.1156 228.597 39.5557L228.597 39.5557C223.448 31.9958 213.145 30.0414 205.585 35.1903L196.09 41.9225L195.872 42.4116L198.595 40.4809Z" id="Shape" fill="#000000" fill-opacity="0.2" stroke="none" />
      <path d="M173.311 105.701C166.025 105.701 159.456 101.312 156.668 94.5804C153.879 87.8488 155.42 80.1004 160.573 74.9483L175.86 59.3511C179.238 55.9682 183.821 54.0664 188.602 54.0645C193.382 54.0626 197.967 55.9607 201.347 59.3409C201.914 59.9083 201.913 60.8276 201.346 61.3947C200.779 61.9618 199.86 61.9621 199.292 61.3953C193.392 55.4951 183.826 55.4951 177.925 61.3953C175.68 69.3114 170.828 74.7429 162.638 76.9926C158.814 80.8067 157.317 86.3716 158.711 91.5892C160.105 96.8069 164.178 100.884 169.394 102.283C174.611 103.682 180.177 102.19 183.995 98.3702C183.664 95.1226 184.612 92.0699 192.05 90.0056C192.409 89.6297 192.943 89.4747 193.448 89.5993C193.953 89.724 194.353 90.1091 194.496 90.6091C194.64 91.1091 194.505 91.6477 194.142 92.0211L186.068 100.405C182.695 103.805 178.1 105.712 173.311 105.701L173.311 105.701Z" id="Shape" fill="#FFFFFF" stroke="none" />
      <path d="M198.131 83.6362C193.35 83.6492 188.763 81.7491 185.392 78.3595C185.025 77.9925 184.882 77.4575 185.017 76.9562C185.151 76.4548 185.543 76.0632 186.044 75.929C186.545 75.7947 187.08 75.9381 187.447 76.3051C190.281 79.1387 194.124 80.7305 198.131 80.7305C202.138 80.7306 205.981 79.1387 208.814 76.3052C210.75 64.6417 218.644 62.9957 225.506 59.6143C231.402 53.7132 231.4 44.1502 225.501 38.2515C219.603 32.3528 210.04 32.3506 204.138 38.2467C202.229 43.7538 200.355 49.3256 194.671 47.7145C194.304 48.0815 193.769 48.2249 193.267 48.0906C192.766 47.9562 192.374 47.5647 192.24 47.0633C192.106 46.562 192.249 46.0271 192.616 45.6601L202.084 36.1926C206.634 31.6396 213.269 29.8608 219.487 31.5267C225.705 33.1927 230.561 38.05 232.226 44.2684C233.891 50.4867 232.111 57.1209 227.558 61.6709L210.869 78.3598C207.498 81.7492 202.911 83.6492 198.131 83.6362L198.131 83.6362Z" id="Shape" fill="#FFFFFF" stroke="none" />
      <path d="M253.016 33.7782C250.169 28.9423 246.742 24.4717 242.812 20.4654C241.936 19.5744 241.03 18.7025 240.105 17.8551C239.592 17.3854 239.074 16.9253 238.546 16.4748C237.543 15.6129 236.512 14.7799 235.461 13.9761C223.59 4.89552 209.055 -0.0168488 194.109 4.34204e-05C156.461 3.60309e-05 125.826 30.6304 125.826 68.2828C125.826 72.4631 126.206 76.6061 126.96 80.6887C126.96 80.702 126.962 80.7153 126.964 80.7285C127.308 82.6027 127.734 84.4525 128.228 86.2685C135.379 112.463 157.371 131.931 184.239 135.85C211.108 139.77 237.745 127.397 252.081 104.337C253.026 102.816 253.913 101.257 254.745 99.6587C265.524 78.8596 264.871 53.9834 253.016 33.7782L253.016 33.7782ZM194.109 135.597C176.254 135.603 159.129 128.513 146.504 115.888C133.879 103.263 126.789 86.1375 126.795 68.2828C126.795 31.1629 156.994 0.968585 194.109 0.968585C212.254 0.978871 229.626 8.31672 242.285 21.3176C243.919 22.9857 245.461 24.7414 246.905 26.577C248.334 28.3731 249.667 30.2433 250.9 32.1799C261.293 48.5066 264.151 68.5182 258.745 87.1016C258.149 89.1548 257.452 91.1647 256.667 93.1357C255.878 95.1115 255.001 97.0486 254.033 98.9276C242.487 121.394 219.369 135.541 194.109 135.597L194.109 135.597Z" id="Shape" fill="#3F3D56" fill-rule="evenodd" stroke="none" />
      <path d="M286.999 229.047L282.548 229.009L280.577 211.44L287.147 211.496L286.999 229.047L286.999 229.047Z" id="Polygon" fill="#FFB6B6" fill-rule="evenodd" stroke="none" />
      <path d="M288.179 226.994L287.017 226.917L282.276 226.592L280.75 226.49L280.722 229.672L273.612 234.495C272.892 234.985 272.573 235.886 272.826 236.72C273.079 237.554 273.845 238.126 274.716 238.132L283.564 238.205L285.114 235.067L285.68 238.224L289.022 238.253L288.179 226.994Z" id="Shape" fill="#2F2E41" stroke="none" />
      <path d="M333.862 225.795L329.608 227.103L322.426 210.948L328.706 209.018L333.862 225.795L333.862 225.795Z" id="Polygon" fill="#FFB6B6" fill-rule="evenodd" stroke="none" />
      <path d="M334.369 223.483L333.236 223.759L328.621 224.878L327.134 225.241L328.069 228.287L322.747 235.028C322.275 235.628 322.187 236.444 322.52 237.13C322.853 237.816 323.548 238.252 324.311 238.253C324.508 238.253 324.704 238.223 324.892 238.166L333.352 235.566L333.88 232.103L335.377 234.941L338.568 233.958L334.369 223.483Z" id="Shape" fill="#2F2E41" stroke="none" />
      <path d="M278.046 81.3174L269.551 106.003L269.271 107.978C267.13 110.01 269.819 110.68 268.811 111.216C267.803 111.752 267.125 113.254 268.483 113.522C269.842 113.791 274.222 210.074 280 213.812C285.778 217.551 289.294 220.255 288.233 214.781C287.805 212.575 288.41 200.75 289.284 187.415C289.383 185.904 290.949 184.304 289.591 182.835C288.233 181.366 289.758 180.399 289.844 179.179C291.062 161.766 292.469 144.575 292.469 144.575C292.469 144.575 301.474 175.499 303.812 173.106C306.151 170.712 305.225 176.606 305.94 178.367C306.537 179.839 303.989 182.73 307.733 182.774C311.478 182.818 320.271 212.877 321.163 212.844C322.93 212.776 327.899 212.966 330.849 212.359C332.306 212.059 325.839 189.302 320.439 169.65C320.008 168.082 317.664 168.046 319.172 165.02C320.679 161.995 313.179 142.417 313.823 141.512C315.531 139.108 316.181 138.064 314.497 137.906C312.812 137.749 312.314 138.673 312.223 136.342C312.132 134.011 311.841 128.262 311.841 128.262C311.841 128.262 310.621 105.526 302.076 92.9642L301.347 85.5006L278.046 81.3174Z" id="Shape" fill="#2F2E41" stroke="none" />
      <path d="M299.267 34.1869L288.002 35.7908L287.322 43.9475L281.764 52.6427C281.764 52.6427 269.408 61.3378 278.025 75.0735C274.746 86.9058 271.486 98.2534 268.377 105.819C265.956 120.831 287.648 122.27 312.446 116.957C312.446 116.957 312.104 110.538 309.854 107.452C307.603 104.366 308.829 103.692 308.829 103.692L307.256 97.9268C308.146 89.5932 305.141 88.8453 303.729 84.995L308.016 45.045L299.267 34.1869Z" id="Shape" fill="#E6E6E6" stroke="none" />
      <path d="M245.191 104.015C245.439 102.348 246.97 101.181 248.643 101.383C248.807 101.406 248.968 101.442 249.125 101.491L255.65 92.8105L261.22 94.5718L250.996 105.496C250.474 106.806 249.135 107.6 247.736 107.429C246.109 107.215 244.965 105.723 245.179 104.096C245.182 104.069 245.186 104.042 245.191 104.015L245.191 104.015Z" id="Shape" fill="#FFB6B6" stroke="none" />
      <path d="M303.148 49.9723C302.988 49.7737 302.814 49.58 302.63 49.3911C300.012 46.693 296.007 45.8778 292.543 47.3379C292.378 47.4055 292.213 47.4831 292.054 47.5606C286.266 50.4032 283.143 52.2967 282.765 53.183C282.634 53.4833 282.523 53.7787 282.412 54.0643C282.305 54.3452 282.203 54.6115 282.097 54.8536C281.651 55.89 281.138 56.5341 279.83 56.2435C279.397 56.1375 278.979 55.9764 278.586 55.7642C278.407 55.677 278.242 55.585 278.087 55.4977C277.525 55.188 277.118 54.9652 276.842 55.1686C276.576 55.367 276.566 55.8706 276.809 57.0378C276.889 57.5249 276.876 58.0229 276.77 58.5051C276.45 59.9118 275.948 61.2711 275.278 62.5488C274.274 64.5517 273.145 66.4894 271.898 68.3504L260.377 84.777L259.597 85.886L258.745 87.1016L251.946 96.7968L252.348 97.2082L254.033 98.9275L254.406 99.3101L254.745 99.6587L255.622 100.555L256.445 101.392L274.813 86.4284L276.862 84.7575L280.533 81.7649L288.053 75.6389L302.286 62.4665C304.102 60.7998 305.16 58.4653 305.216 56.0014C305.216 55.9191 305.221 55.8416 305.221 55.7593C305.226 53.6472 304.493 51.6002 303.148 49.9721L303.148 49.9723Z" id="Shape" fill="#E6E6E6" stroke="none" />
      <path d="M279.917 21.3028C279.917 14.3511 285.552 8.71562 292.504 8.71562C299.456 8.71562 305.091 14.3511 305.091 21.3028C305.091 28.2545 299.456 33.89 292.504 33.89C285.552 33.89 279.917 28.2545 279.917 21.3028Z" id="Circle" fill="#FFB6B6" fill-rule="evenodd" stroke="none" />
      <path d="M309.185 38.7567C310.874 41.1745 312.004 43.9379 312.493 46.8465C311.132 47.7175 309.547 48.175 307.931 48.1635C307.876 47.9518 307.821 47.7402 307.758 47.5285C307.29 45.8896 306.593 44.3248 305.689 42.8801C305.813 44.4379 305.601 46.0043 305.069 47.4737C304.215 47.0855 303.3 46.8495 302.365 46.776C301.603 46.776 300.852 46.9531 300.17 47.2934C299.378 44.6673 298.649 42.2529 298.132 40.5205C298.116 44.8633 291.751 48.6495 284.806 48.1008C284.555 47.944 287.071 40.8027 286.828 40.6381C286.272 40.2697 285.731 39.8699 285.19 39.4779C287.463 35.966 289.932 32.2033 289.509 31.639C289.54 32.3367 287.048 35.6917 284.335 38.8586C282.83 37.7534 291.383 19.7708 287.157 18.3127C287.087 18.9477 286.154 18.9477 285.017 18.8144C284.718 17.7668 284.272 16.7666 283.693 15.8434C283.768 16.7734 283.656 17.709 283.363 18.5949C282.241 18.5952 281.122 18.7134 280.024 18.9477C279.77 18.548 279.49 18.1657 279.185 17.8032C279.215 18.245 279.202 18.6887 279.146 19.1279C278.025 19.3709 277.1 19.6531 276.967 19.8805C276.089 19.5591 277.586 18.1089 277.037 17.3563C275.642 15.475 277.711 12.7314 279.021 10.7873C281.709 6.80512 287.612 5.42545 291.79 7.81632C291.978 7.16568 292.943 6.73455 294.181 6.44451C294.706 6.32881 295.243 6.27878 295.78 6.29558C301.111 6.38963 308.511 10.7873 308.801 16.11C308.824 16.643 308.864 17.2231 308.903 17.8423C309.279 23.8 308.817 29.2951 312.885 33.6536C314.359 35.2292 314.374 42.6919 313.81 46.533C312.344 44.9887 311.301 38.9841 309.185 38.7567L309.185 38.7567Z" id="Shape" fill="#2F2E41" stroke="none" />
      <path d="M169.101 68.5296C169.101 67.7273 169.751 67.0768 170.554 67.0768C171.356 67.0768 172.007 67.7273 172.007 68.5296C172.007 69.332 171.356 69.9825 170.554 69.9825C169.751 69.9825 169.101 69.332 169.101 68.5296Z" id="Circle" fill="#6C63FF" fill-rule="evenodd" stroke="none" />
      <path d="M215.107 67.5611C215.107 66.7587 215.758 66.1083 216.56 66.1083C217.362 66.1083 218.013 66.7587 218.013 67.5611C218.013 68.3634 217.362 69.0139 216.56 69.0139C215.758 69.0139 215.107 68.3634 215.107 67.5611Z" id="Circle" fill="#6C63FF" fill-rule="evenodd" stroke="none" />
      <path d="M78.2658 26.5367C77.1601 29.2903 74.0409 34.7054 73.6184 37.6595L73.8086 37.4725C74.1713 38.0922 74.5835 38.6816 75.0412 39.2349C75.8615 38.3734 76.8522 37.6922 77.9502 37.2347C77.3506 38.465 77.0033 39.8028 76.9289 41.1693C78.106 44.8592 83.5479 43.216 86.7364 42.8131C89.9204 46.4552 94.1566 47.4056 99.7039 45.3117C101.255 45.4715 102.992 45.5684 104.079 44.6517C105.166 43.7349 104.519 42.0372 105.104 40.7531C109.27 31.6067 105.425 28.3067 102.158 24.1593C101.44 23.2466 101.443 21.8846 100.568 21.0138C99.354 19.8068 97.4934 19.4356 95.778 19.1381C96.6843 19.1859 97.5498 18.7576 98.0615 18.0081C98.5116 17.2512 98.4996 16.3058 98.0305 15.5605C97.417 14.5434 96.1422 13.952 94.9123 13.8042C93.7006 13.722 92.4835 13.8266 91.3036 14.1144C90.5393 14.215 89.7992 14.4515 89.1183 14.8129C88.4604 15.1639 88.0894 15.8863 88.1873 16.6255C88.3949 17.3008 88.8993 17.8444 89.5572 18.102C90.0523 18.3113 90.5731 18.4539 91.1059 18.5259C88.6589 18.2084 86.1732 18.6434 83.9796 19.7732C81.2304 21.2397 79.3752 23.7845 78.2658 26.5367L78.2658 26.5367Z" id="Shape" fill="#2F2E41" stroke="none" />
      <path d="M83.3246 32.1473C83.3246 26.7199 87.7244 22.3201 93.1519 22.3201C98.5793 22.3201 102.979 26.7199 102.979 32.1473C102.979 37.5748 98.5793 41.9746 93.1519 41.9746C87.7244 41.9746 83.3246 37.5748 83.3246 32.1473Z" id="Circle" fill="#A0616A" fill-rule="evenodd" stroke="none" />
      <path d="M83.6956 26.8781C84.2654 28.6002 85.8937 29.1551 87.3987 29.5012C87.8733 29.6118 88.3507 29.7149 88.8326 29.8066C89.0104 29.5843 89.1995 29.3665 89.397 29.1606C90.2172 28.2991 91.2079 27.6179 92.3059 27.1604C91.8311 28.1322 91.5156 29.1739 91.3713 30.2459C92.2811 30.3779 93.196 30.4857 94.1159 30.5695C95.7324 30.9135 97.3348 29.9303 97.7603 28.3334C98.5977 29.7029 99.5879 30.9926 100.942 31.5366C102.532 32.1077 104.308 31.5764 105.323 30.2261C106.103 29.1531 106.645 27.925 106.91 26.6248C107.294 25.0998 107.508 23.3431 106.753 22.3755C106.149 21.5925 105.106 21.5784 104.144 21.6479C102.021 21.8108 99.9195 22.1917 97.874 22.7846L97.7009 23.1739C98.0524 21.0621 97.2899 19.0302 95.8791 18.3076C94.9275 17.8245 93.7826 17.9055 92.6702 18.0035C91.2414 18.0673 89.8296 18.3403 88.48 18.8139C86.9317 19.4094 85.6053 20.4688 84.6822 21.8471C83.6948 23.3463 83.2041 25.3909 83.6956 26.8781L83.6956 26.8781Z" id="Shape" fill="#2F2E41" stroke="none" />
      <path d="M97.7053 17.693C97.6083 17.6644 97.8596 17.7012 97.7724 17.7035C97.8157 17.701 97.8587 17.695 97.901 17.6855C97.9082 17.6841 98.006 17.6529 97.9411 17.6758C98.087 17.6322 98.2172 17.5472 98.3159 17.4312C98.5468 17.1457 98.7279 16.8234 98.8516 16.4778C99.0078 16.021 99.2588 15.6025 99.5882 15.2496C99.7778 15.0591 100.047 14.9705 100.313 15.0111C100.578 15.0516 100.809 15.2165 100.933 15.4548C101.057 15.9081 101.014 16.391 100.813 16.8156C100.672 17.2476 100.462 17.6541 100.192 18.0194C99.739 18.6167 99.122 19.0693 98.4163 19.3221C97.5994 19.6188 96.7087 19.6442 95.8762 19.3947C95.6515 19.3015 95.503 19.0843 95.4977 18.8411C95.4924 18.5978 95.6312 18.3744 95.8517 18.2715L97.2401 17.7032C97.4389 17.6157 97.6693 17.6409 97.8445 17.7694C98.0197 17.8978 98.113 18.11 98.0894 18.3259C98.0657 18.5418 97.9287 18.7288 97.7298 18.8162L96.3414 19.3846L96.3169 18.2613C96.4901 18.3113 96.6684 18.3418 96.8484 18.3522C97.0405 18.3715 97.2343 18.3633 97.424 18.3279C97.6058 18.3041 97.7844 18.2605 97.9567 18.198C98.0671 18.1577 98.1753 18.1119 98.281 18.0606C98.3194 18.0419 98.3575 18.0226 98.3952 18.0025C98.3924 18.004 98.554 17.9099 98.4831 17.9541C98.6627 17.8393 98.8312 17.7081 98.9864 17.5621C99.0412 17.5103 99.0917 17.4541 99.1373 17.3941C99.2164 17.2969 99.2898 17.1952 99.357 17.0895C99.4937 16.8656 99.6021 16.6255 99.6795 16.3749C99.7148 16.2695 99.7446 16.1624 99.7687 16.0539C99.7754 15.9944 99.7862 15.9354 99.801 15.8773C99.8525 15.739 99.7912 15.9581 99.8504 16.0181L100.106 16.2066C100.204 16.2356 100.309 16.2188 100.392 16.1608C100.423 16.1182 100.416 16.1253 100.373 16.1821C100.322 16.249 100.275 16.319 100.234 16.3917C100.142 16.563 100.059 16.7388 99.985 16.9185C99.8323 17.3006 99.6391 17.6654 99.4089 18.0065C98.9462 18.7142 98.0814 19.0449 97.2646 18.8264C96.9536 18.7026 96.7995 18.3522 96.9183 18.0394C97.0452 17.7314 97.3925 17.5785 97.7053 17.693L97.7053 17.693Z" id="Shape" fill="#2F2E41" stroke="none" />
    </g>
  </g>
</svg>