<?xml version="1.0" encoding="utf-8"?>
<svg width="347.47754px" height="263.5642px" viewBox="0 0 347.47754 263.5642" version="1.1" xmlns:xlink="http://www.w3.org/1999/xlink" xmlns="http://www.w3.org/2000/svg">
  <g id="undraw_personal_website_re_c8dv">
    <path d="M167.705 34.2758C164.203 39.0718 161.51 44.4084 159.731 50.0741C158.144 55.0194 156.959 60.0848 156.188 65.221C155.81 65.0724 155.439 64.9123 155.073 64.7351C148.149 61.3754 144.464 53.6791 146.187 46.1789C147.91 38.6786 154.585 33.3624 162.281 33.3612C163.685 33.3589 165.083 33.5376 166.442 33.8928C166.87 34.0014 167.293 34.1271 167.705 34.2758L167.705 34.2758Z" id="Shape" fill="#FF6584" stroke="none" />
    <path d="M14.7027 225.172C15.8385 216.039 21.4986 207.04 30.2089 204.068C26.7738 213.469 26.7746 223.781 30.211 233.181C31.5494 236.801 33.415 240.689 32.1561 244.338C31.3727 246.608 29.4565 248.345 27.3145 249.431C25.1723 250.517 22.795 251.035 20.4475 251.542L19.9854 251.924C16.2587 243.509 13.5669 234.305 14.7027 225.172L14.7027 225.172Z" id="Shape" fill="#E6E6E6" stroke="none" />
    <path d="M30.2953 204.241C25.2229 209.924 22.0703 217.061 21.2852 224.639C21.0872 226.267 21.1471 227.916 21.4627 229.526C21.8208 231.084 22.5896 232.517 23.6891 233.678C24.6926 234.78 25.8468 235.792 26.5648 237.119C27.2878 238.504 27.3852 240.132 26.8326 241.594C26.1987 243.412 24.9492 244.894 23.677 246.301C22.2645 247.863 20.7725 249.463 20.1721 251.534C20.0993 251.785 19.7143 251.657 19.7869 251.407C20.8316 247.804 24.329 245.757 25.9969 242.512C26.7752 240.998 27.1018 239.24 26.3722 237.642C25.7342 236.244 24.5449 235.2 23.5192 234.092C22.43 232.976 21.6306 231.61 21.191 230.114C20.7944 228.525 20.6711 226.881 20.8262 225.252C21.1168 221.577 21.9835 217.971 23.3943 214.566C24.9829 210.67 27.2261 207.076 30.027 203.937C30.2004 203.742 30.4677 204.048 30.2954 204.241L30.2953 204.241Z" id="Shape" fill="#FFFFFF" stroke="none" />
    <path d="M21.3947 222.184C18.806 221.555 17.0537 219.144 17.2555 216.488C17.2762 216.228 17.6815 216.248 17.6608 216.508C17.4682 218.982 19.107 221.228 21.5219 221.799C21.7759 221.859 21.6472 222.244 21.3948 222.184L21.3947 222.184Z" id="Shape" fill="#FFFFFF" stroke="none" />
    <path d="M23.1071 233.186C25.3709 231.834 27.0421 229.679 27.7874 227.15C27.861 226.899 28.2461 227.026 28.1726 227.277C27.3921 229.907 25.6484 232.147 23.2895 233.548C23.0646 233.681 22.8834 233.318 23.1071 233.186L23.1071 233.186Z" id="Shape" fill="#FFFFFF" stroke="none" />
    <path d="M25.3595 211.055C26.2948 211.499 27.391 211.443 28.2764 210.907C28.4996 210.77 28.6805 211.133 28.4589 211.269C27.4782 211.857 26.2697 211.921 25.2323 211.44C25.1285 211.402 25.0721 211.29 25.1033 211.184C25.1389 211.078 25.2532 211.02 25.3595 211.055L25.3595 211.055Z" id="Shape" fill="#FFFFFF" stroke="none" />
    <path d="M56.7588 220.381C56.6219 220.47 56.485 220.559 56.3479 220.651C54.5135 221.858 52.7802 223.211 51.165 224.698C51.0382 224.811 50.9115 224.927 50.7883 225.044C46.9351 228.668 43.7881 232.975 41.5074 237.748C40.6016 239.648 39.8417 241.614 39.2342 243.63C38.3954 246.413 37.7074 249.497 36.047 251.774C35.8764 252.013 35.6912 252.242 35.4923 252.459L20.4874 252.459C20.4533 252.441 20.419 252.428 20.3847 252.411L19.7856 252.438C19.8097 252.332 19.837 252.222 19.861 252.116C19.8747 252.055 19.8918 251.993 19.9055 251.931C19.9157 251.89 19.9261 251.849 19.9329 251.811C19.9363 251.798 19.9398 251.784 19.9431 251.774C19.95 251.736 19.9604 251.702 19.9672 251.668C20.1178 251.055 20.273 250.442 20.4328 249.829C20.4328 249.826 20.4328 249.826 20.4361 249.822C21.6087 245.141 23.3325 240.616 25.5713 236.341C25.6398 236.214 25.7082 236.084 25.7836 235.958C26.8202 234.065 28.0099 232.261 29.3405 230.562C30.0722 229.634 30.8503 228.744 31.6719 227.895C33.7991 225.706 36.2575 223.864 38.9569 222.438C44.3387 219.597 50.5692 218.508 56.3207 220.244C56.4678 220.289 56.6117 220.333 56.7588 220.381L56.7588 220.381Z" id="Shape" fill="#E6E6E6" stroke="none" />
    <path d="M56.7252 220.571C49.2533 222.055 42.4389 225.856 37.25 231.433C36.1117 232.614 35.1665 233.967 34.4494 235.442C33.7974 236.902 33.548 238.509 33.7273 240.098C33.8648 241.582 34.1772 243.085 33.9514 244.577C33.6947 246.118 32.7923 247.477 31.4712 248.311C29.8703 249.381 27.9804 249.812 26.1176 250.169C24.0494 250.566 21.8948 250.945 20.1686 252.237C19.9595 252.394 19.7288 252.06 19.9377 251.904C22.9409 249.656 26.9655 250.128 30.251 248.541C31.784 247.801 33.1032 246.594 33.483 244.878C33.8151 243.378 33.4942 241.828 33.342 240.326C33.1444 238.779 33.3286 237.207 33.8785 235.748C34.5182 234.241 35.4096 232.854 36.5146 231.646C38.959 228.887 41.822 226.53 44.9987 224.66C48.6124 222.507 52.5678 220.987 56.694 220.167C56.9494 220.116 56.9789 220.521 56.7252 220.571L56.7252 220.571Z" id="Shape" fill="#FFFFFF" stroke="none" />
    <path d="M38.8154 229.539C37.1269 227.479 37.1796 224.498 38.94 222.499C39.1132 222.304 39.4248 222.563 39.2514 222.759C37.608 224.618 37.5645 227.398 39.1489 229.308C39.3153 229.509 38.9809 229.739 38.8154 229.539L38.8154 229.539Z" id="Shape" fill="#FFFFFF" stroke="none" />
    <path d="M33.5587 239.354C36.18 239.638 38.812 238.923 40.9298 237.353C41.1395 237.197 41.3702 237.53 41.1608 237.686C38.9539 239.316 36.2134 240.055 33.4862 239.753C33.2263 239.724 33.3002 239.325 33.5587 239.354L33.5587 239.354Z" id="Shape" fill="#FFFFFF" stroke="none" />
    <path d="M48.682 223.04C49.1612 223.958 50.0699 224.573 51.1001 224.678C51.3603 224.703 51.2861 225.102 51.0277 225.077C49.8904 224.956 48.8869 224.28 48.3485 223.271C48.2885 223.178 48.3109 223.055 48.3998 222.989C48.492 222.926 48.6179 222.948 48.682 223.04L48.682 223.04Z" id="Shape" fill="#FFFFFF" stroke="none" />
    <path d="M173.017 230.799C166.782 224.029 163.573 213.894 166.935 205.327C171.888 214.024 179.758 220.689 189.152 224.142C192.779 225.461 196.951 226.549 198.922 229.868C200.148 231.934 200.235 234.519 199.679 236.855C199.124 239.192 197.982 241.34 196.852 243.459L196.845 244.059C188.015 241.464 179.252 237.569 173.017 230.799L173.017 230.799Z" id="Shape" fill="#E6E6E6" stroke="none" />
    <path d="M167.123 205.373C168.181 212.917 171.59 219.935 176.864 225.432C177.979 226.635 179.276 227.655 180.708 228.455C182.128 229.188 183.719 229.529 185.315 229.439C186.805 229.386 188.323 229.16 189.8 229.469C191.324 229.813 192.629 230.791 193.387 232.157C194.365 233.816 194.688 235.727 194.94 237.607C195.219 239.695 195.475 241.867 196.667 243.664C196.812 243.882 196.465 244.093 196.321 243.876C194.247 240.75 194.946 236.759 193.548 233.389C192.896 231.816 191.765 230.431 190.074 229.954C188.595 229.538 187.03 229.77 185.522 229.837C183.966 229.947 182.407 229.674 180.981 229.042C179.513 228.318 178.178 227.35 177.035 226.178C174.419 223.581 172.228 220.589 170.541 217.312C168.595 213.582 167.302 209.547 166.717 205.381C166.681 205.123 167.087 205.116 167.123 205.373L167.123 205.373Z" id="Shape" fill="#FFFFFF" stroke="none" />
    <path d="M175.062 223.762C172.909 225.331 169.937 225.109 168.04 223.239C167.855 223.055 168.132 222.758 168.317 222.942C170.081 224.689 172.854 224.889 174.85 223.416C175.06 223.261 175.271 223.608 175.062 223.762L175.062 223.762Z" id="Shape" fill="#FFFFFF" stroke="none" />
    <path d="M184.563 229.566C184.995 226.965 184.431 224.297 182.982 222.093C182.839 221.875 183.185 221.664 183.328 221.882C184.831 224.177 185.413 226.955 184.958 229.661C184.914 229.919 184.52 229.822 184.563 229.566L184.563 229.566Z" id="Shape" fill="#FFFFFF" stroke="none" />
    <path d="M169.132 213.543C170.075 213.117 170.741 212.244 170.904 211.222C170.944 210.963 171.338 211.06 171.298 211.317C171.114 212.445 170.381 213.409 169.343 213.889C169.247 213.944 169.125 213.915 169.065 213.822C169.007 213.726 169.037 213.602 169.132 213.543L169.132 213.543Z" id="Shape" fill="#FFFFFF" stroke="none" />
    <path d="M196.543 195.611C196.522 195.773 196.502 195.935 196.484 196.1C196.219 198.279 196.131 200.476 196.222 202.67C196.226 202.84 196.233 203.011 196.242 203.181C196.517 208.463 197.77 213.649 199.938 218.474C200.802 220.393 201.811 222.244 202.956 224.01C204.538 226.449 206.447 228.967 207.111 231.706C207.183 231.991 207.238 232.28 207.275 232.571L197.577 244.021C197.542 244.036 197.509 244.053 197.474 244.068L197.108 244.543C197.042 244.456 196.976 244.365 196.911 244.278C196.873 244.227 196.837 244.175 196.798 244.124C196.774 244.09 196.749 244.056 196.725 244.026C196.716 244.015 196.708 244.003 196.703 243.994C196.678 243.964 196.659 243.934 196.637 243.907C196.267 243.396 195.9 242.881 195.535 242.363C195.533 242.361 195.533 242.361 195.532 242.357C192.718 238.436 190.379 234.196 188.564 229.725C188.512 229.59 188.457 229.454 188.409 229.315C187.635 227.301 187.027 225.227 186.591 223.114C186.356 221.956 186.179 220.787 186.062 219.611C185.766 216.572 185.95 213.506 186.607 210.525C187.917 204.582 191.113 199.124 196.155 195.857C196.284 195.774 196.411 195.692 196.543 195.611L196.543 195.611Z" id="Shape" fill="#E6E6E6" stroke="none" />
    <path d="M196.666 195.76C192.969 202.421 191.465 210.077 192.367 217.641C192.533 219.273 192.954 220.868 193.616 222.369C194.308 223.81 195.374 225.039 196.702 225.929C197.924 226.784 199.272 227.517 200.265 228.653C201.275 229.845 201.728 231.412 201.511 232.959C201.293 234.872 200.4 236.593 199.469 238.245C198.435 240.08 197.332 241.969 197.202 244.121C197.186 244.382 196.782 244.342 196.798 244.082C197.024 240.338 199.985 237.572 200.898 234.039C201.324 232.391 201.255 230.604 200.192 229.205C199.262 227.982 197.872 227.226 196.627 226.371C195.319 225.522 194.239 224.365 193.48 223.002C192.744 221.54 192.262 219.964 192.054 218.34C191.529 214.691 191.581 210.983 192.207 207.351C192.899 203.201 194.296 199.201 196.337 195.522C196.464 195.295 196.792 195.534 196.666 195.76L196.666 195.76Z" id="Shape" fill="#FFFFFF" stroke="none" />
    <path d="M4.22363 2.18453C4.22363 0.978048 5.20168 0 6.40816 0C7.61465 0 8.5927 0.978048 8.5927 2.18453C8.5927 3.39101 7.61465 4.36906 6.40816 4.36906C5.20168 4.36906 4.22363 3.39101 4.22363 2.18453Z" id="bf385270-786a-48fa-9396-8c3f6b000715" fill="#FFFFFF" fill-rule="evenodd" stroke="none" />
    <path d="M191.934 215.223C189.27 215.179 187.03 213.213 186.642 210.577C186.605 210.319 187.005 210.249 187.042 210.508C187.399 212.964 189.491 214.793 191.973 214.819C192.234 214.822 192.193 215.226 191.934 215.223L191.934 215.223Z" id="Shape" fill="#FFFFFF" stroke="none" />
    <path d="M196.026 225.577C197.936 223.761 199.092 221.29 199.262 218.659C199.279 218.398 199.683 218.438 199.666 218.698C199.484 221.436 198.276 224.004 196.283 225.891C196.093 226.07 195.837 225.756 196.026 225.577L196.026 225.577Z" id="Shape" fill="#FFFFFF" stroke="none" />
    <path d="M193.351 203.493C194.361 203.721 195.418 203.425 196.164 202.707C196.351 202.525 196.608 202.839 196.421 203.02C195.594 203.81 194.43 204.138 193.312 203.897C193.202 203.883 193.122 203.786 193.129 203.676C193.141 203.564 193.24 203.483 193.351 203.493L193.351 203.493Z" id="Shape" fill="#FFFFFF" stroke="none" />
    <path d="M102.211 206.627C102.211 201.106 106.688 196.63 112.209 196.63C117.731 196.63 122.207 201.106 122.207 206.627C122.207 212.149 117.731 216.625 112.209 216.625C106.688 216.625 102.211 212.149 102.211 206.627Z" id="Circle" fill="#F2F2F2" fill-rule="evenodd" stroke="none" />
    <path d="M101.06 116.548C101.06 114.494 102.725 112.829 104.779 112.829C106.833 112.829 108.498 114.494 108.498 116.548C108.498 118.602 106.833 120.267 104.779 120.267C102.725 120.267 101.06 118.602 101.06 116.548Z" id="Circle" fill="#6C63FF" fill-rule="evenodd" stroke="none" />
    <path d="M49.9165 158.056C49.9165 156.002 51.5816 154.337 53.6355 154.337C55.6894 154.337 57.3545 156.002 57.3545 158.056C57.3545 160.109 55.6894 161.775 53.6355 161.775C51.5816 161.775 49.9165 160.109 49.9165 158.056Z" id="Circle" fill="#F0F0F0" fill-rule="evenodd" stroke="none" />
    <path d="M7.75099 75.457C6.95767 75.4595 6.31582 76.4898 6.31739 77.7581C6.31896 79.0229 6.95989 80.0476 7.75099 80.05L115.484 80.05C116.278 80.0475 116.92 79.0173 116.918 77.749C116.916 76.4842 116.275 75.4595 115.484 75.457L7.75099 75.457Z" id="a53fb1f8-3aef-4d80-830f-cc7df7624a2a-442" fill="#E6E6E6" stroke="none" />
    <path d="M7.75099 88.7646C6.95767 88.7672 6.31582 89.7974 6.31739 91.0657C6.31896 92.3305 6.95989 93.3552 7.75099 93.3577L115.484 93.3577C116.278 93.3552 116.92 92.3249 116.918 91.0566C116.916 89.7918 116.275 88.7671 115.484 88.7646L7.75099 88.7646Z" id="bb62af06-a55e-49de-a8ab-ddae6c01ce32-443" fill="#E6E6E6" stroke="none" />
    <path d="M7.75099 101.911C6.95767 101.914 6.31582 102.944 6.31739 104.212C6.31896 105.477 6.95989 106.502 7.75099 106.504L76.9027 106.504C77.696 106.502 78.3379 105.472 78.3363 104.203C78.3347 102.939 77.6938 101.914 76.9027 101.911L7.75099 101.911Z" id="be19a32e-edc4-40d3-83d1-fa4636256d4d-444" fill="#E6E6E6" stroke="none" />
    <path d="M0 248.916C0.159564 248.821 0.34177 248.73 0.507244 248.636C0.799741 247.845 0 248.916 0 248.916L0 248.916Z" id="Shape" fill="#F2F2F2" stroke="none" />
    <path d="M19.5724 238.489C18.2081 238.488 16.8455 238.586 15.4955 238.784L15.3006 238.812C6.36177 240.244 -0.113193 248.106 0.195132 257.154L0.246764 258.799C0.280813 259.839 0.31706 260.957 0.346958 262.197C0.354388 262.798 0.844297 263.28 1.4449 263.278L219.833 263.278C235.23 263.116 250.572 262.913 265.429 262.673C268.227 262.682 271.02 262.431 273.771 261.924C277.9 261.078 280.766 259.401 282.533 256.796L282.533 256.796C284.731 253.566 284.8 249.5 284.667 244.905C284.397 235.626 284.128 225.88 283.86 216.162C283.624 207.598 283.388 199.057 283.152 190.879C283.007 186.026 282.683 181.743 280.187 178.469C277.482 174.929 272.549 173.134 265.525 173.134C265.44 173.134 265.355 173.134 265.269 173.135C243.255 173.27 221.442 186.379 210.991 205.753C209.787 207.984 208.666 210.373 207.581 212.683C206.038 216.149 204.289 219.521 202.345 222.779C201.332 224.434 200.174 225.997 198.886 227.449C198.801 227.55 198.704 227.659 198.601 227.762C198.366 228.027 198.121 228.283 197.881 228.511C196.562 229.848 195.08 231.015 193.47 231.984L193.315 232.074C193.199 232.146 193.073 232.218 192.947 232.284C192.071 232.771 191.161 233.193 190.222 233.544C186.239 235.065 181.709 235.429 176.759 234.627C172.062 233.817 167.537 232.22 163.372 229.903C158.789 227.394 154.499 224.267 150.35 221.243C148.527 219.914 146.642 218.54 144.76 217.238C144.406 216.993 144.058 216.754 143.704 216.514C141.405 214.963 139.321 213.681 137.332 212.596C132.646 209.975 127.483 208.319 122.146 207.726C116.671 207.207 111.846 208.186 107.809 210.629C106.654 211.331 105.568 212.141 104.566 213.049C99.7837 217.349 96.8357 223.695 93.985 229.833C90.4389 237.467 86.7719 245.362 79.5312 249.455C71.1761 254.182 58.9803 252.218 50.352 248.803C47.6392 247.729 44.9298 246.494 42.3094 245.299C41.2511 244.816 40.1928 244.334 39.1322 243.86C37.0497 242.929 35.3453 242.216 33.7684 241.614L33.2697 241.422C32.9922 241.317 32.7146 241.213 32.4318 241.113C30.6848 240.471 28.904 239.924 27.0974 239.475L26.6909 239.372C25.8763 239.187 25.1146 239.032 24.3672 238.902L24.0689 238.851C22.5823 238.608 21.0785 238.487 19.5724 238.489L19.5724 238.489Z" id="Shape" fill="#E6E6E6" stroke="none" />
    <path d="M141.95 238.759C138.316 225.089 146.387 211.766 155.818 202.542C160.844 197.626 166.442 193.353 171.9 188.94C177.138 184.751 182.126 180.259 186.839 175.486C195.939 166.172 203.876 155.528 209.133 143.563C214.132 132.185 216.495 119.791 215.325 107.376C214.214 95.6019 209.994 84.0198 202.231 74.9862C201.263 73.8605 200.246 72.7816 199.178 71.7494C198.605 71.1933 197.727 72.0689 198.301 72.6259C206.97 81.0439 212.016 92.4518 213.724 104.32C215.485 116.559 213.671 129.036 209.094 140.479C204.219 152.669 196.466 163.546 187.475 173.037C182.947 177.787 178.13 182.253 173.052 186.409C167.629 190.876 161.994 195.097 156.83 199.871C147.313 208.67 138.759 220.773 139.934 234.396C140.071 235.981 140.346 237.551 140.755 239.088C140.855 239.407 141.189 239.59 141.512 239.501C141.834 239.412 142.028 239.084 141.95 238.759L141.95 238.759Z" id="Shape" fill="#E6E6E6" stroke="none" />
    <path d="M180.011 160.937C180.17 161.231 180.068 161.598 179.78 161.768C179.492 161.937 179.122 161.848 178.942 161.566C177.519 159.125 176.176 156.643 174.913 154.118C174.061 152.404 173.244 150.666 172.478 148.911C163.88 129.421 160.198 108.118 161.755 86.8723C162.178 81.0604 163.017 75.2861 164.264 69.5937C164.521 68.4389 164.796 67.2843 165.099 66.1411C165.556 66.0668 166.002 65.9697 166.442 65.8553C163.755 75.595 162.675 85.8663 162.641 95.9146C162.601 107.279 164.063 118.601 166.99 129.584C169.904 140.572 174.283 151.118 180.011 160.937L180.011 160.937Z" id="Shape" fill="#E6E6E6" stroke="none" />
    <path d="M261.427 127.329C256.78 137.325 248.972 145.533 240.216 152.072C230.287 159.486 219.044 164.835 207.904 170.145C207.19 170.488 206.561 169.42 207.281 169.077C209.939 167.808 212.597 166.539 215.238 165.247C225.8 160.063 236.272 154.358 245.114 146.505C253.293 139.24 259.958 130.192 262.999 119.578C266.171 108.529 265.571 96.5833 262.158 85.6662C260.041 79.0365 257.003 72.7372 253.133 66.9527C251.853 65.0151 250.498 63.1308 249.069 61.2998C248.029 59.9681 246.954 58.6629 245.846 57.3845C242.222 53.228 238.281 49.3582 234.06 45.8101C229.668 42.0216 224.808 38.8135 219.599 36.2647C214.247 33.6613 208.396 32.2458 202.446 32.1151C196.823 32.0375 191.286 33.5002 186.436 36.3447C183.119 38.3202 180.14 40.8133 177.611 43.7296C177.445 43.3123 177.262 42.9007 177.056 42.5007C181.423 37.6708 186.87 33.8755 193.209 32.0751C204.921 28.7485 217.284 32.6524 227.166 39.1112C231.988 42.3288 236.492 45.9998 240.616 50.074C242.153 51.5659 243.651 53.1034 245.091 54.6867C246.829 56.5843 248.488 58.5487 250.07 60.5797C250.07 60.5797 250.081 60.5854 250.081 60.5911C250.613 61.2713 251.135 61.961 251.647 62.6602C258.329 71.7483 263.319 82.1796 265.308 93.3311C267.343 104.734 266.337 116.76 261.427 127.329L261.427 127.329Z" id="Shape" fill="#E6E6E6" stroke="none" />
    <path d="M253.573 115.348C248.932 125.345 241.124 133.553 232.362 140.092C222.868 147.174 212.174 152.381 201.519 157.462C201.034 157.697 200.542 157.925 200.056 158.16C199.898 158.241 199.712 158.249 199.548 158.182C199.316 158.116 199.148 157.916 199.122 157.677C199.096 157.438 199.216 157.206 199.427 157.091C199.839 156.891 200.256 156.696 200.668 156.502C201.377 156.159 202.08 155.822 202.788 155.485C204.326 154.753 205.86 154.012 207.39 153.261C217.947 148.083 228.424 142.373 237.26 134.519C245.445 127.254 252.11 118.206 255.151 107.592C258.317 96.5434 257.717 84.6032 254.305 73.686C252.954 69.4016 251.201 65.2544 249.069 61.2999C247.852 59.0365 246.52 56.8245 245.091 54.6868C242.927 51.4409 240.556 48.3384 237.992 45.3987C234.371 41.2426 230.433 37.3746 226.212 33.8299C221.819 30.0407 216.957 26.8325 211.745 24.2845C206.396 21.6794 200.546 20.2619 194.598 20.1292C188.973 20.0515 183.435 21.5142 178.582 24.3588C174.335 26.9111 170.638 30.282 167.705 34.2757C164.203 39.0718 161.51 44.4084 159.731 50.0742C158.144 55.0194 156.959 60.0848 156.188 65.221C155.258 71.4136 154.79 77.6667 154.787 83.9287C154.751 95.2994 156.213 106.623 159.138 117.608C162.055 128.594 166.434 139.137 172.157 148.957C172.173 148.983 172.186 149.009 172.198 149.037C172.307 149.336 172.173 149.668 171.888 149.808C171.602 149.948 171.257 149.849 171.089 149.58C169.665 147.145 168.324 144.663 167.065 142.133C156.745 121.297 152.199 98.0755 153.901 74.8864C154.153 71.4912 154.543 68.1075 155.073 64.7352C155.445 62.346 155.892 59.9701 156.416 57.6076C157.628 51.8047 159.558 46.1752 162.161 40.8489C163.387 38.4122 164.819 36.085 166.442 33.8928C171.18 27.4854 177.605 22.2954 185.361 20.0949C197.073 16.7626 209.43 20.6664 219.318 27.1253C224.138 30.3458 228.641 34.0166 232.768 38.0881C236.785 41.9707 240.473 46.1806 243.793 50.6743C246.115 53.8248 248.212 57.1347 250.069 60.5796C250.069 60.5797 250.081 60.5854 250.081 60.5911C251.195 62.666 252.218 64.7865 253.133 66.9528C255.108 71.5732 256.558 76.4009 257.454 81.3451C259.495 92.7539 258.489 104.774 253.573 115.348L253.573 115.348Z" id="Shape" fill="#E6E6E6" stroke="none" />
    <path d="M215.343 119.66C220.81 119.626 226.097 117.696 230.3 114.2C234.58 110.601 237.397 105.562 238.22 100.031C238.703 96.904 238.548 93.7116 237.762 90.6468C237.662 90.3279 237.327 90.1455 237.005 90.2344C236.683 90.3232 236.489 90.6513 236.567 90.9763C237.892 96.1802 237.294 101.687 234.883 106.486C231.108 113.8 223.573 118.401 215.343 118.42C215.009 118.432 214.744 118.706 214.744 119.04C214.744 119.374 215.008 119.648 215.343 119.66L215.343 119.66Z" id="Shape" fill="#E6E6E6" stroke="none" />
    <path d="M168.792 190.12L164.802 183.096C164.624 182.813 164.253 182.723 163.965 182.892C163.676 183.06 163.573 183.427 163.732 183.722L167.722 190.745C167.901 191.028 168.271 191.118 168.56 190.95C168.848 190.781 168.951 190.414 168.792 190.12L168.792 190.12Z" id="Shape" fill="#E6E6E6" stroke="none" />
    <path d="M145.496 46.8364C144.302 45.9936 142.996 45.1147 141.535 45.1498C137.998 45.2349 136.092 50.4188 132.559 50.2365C130.306 50.1203 128.811 47.8317 126.713 47.0019C123.982 45.9216 120.507 48.0344 120.209 50.956L120.56 50.635C131.175 53.2229 142.191 53.7318 153 52.1337C150.499 50.3679 147.997 48.6021 145.496 46.8364L145.496 46.8364Z" id="Shape" fill="#E6E6E6" stroke="none" />
    <path d="M127.312 254.141C127.312 252.169 128.91 250.571 130.882 250.571C132.854 250.571 134.452 252.169 134.452 254.141C134.452 256.113 132.854 257.712 130.882 257.712C128.91 257.712 127.312 256.113 127.312 254.141Z" id="Circle" fill="#FFFFFF" fill-rule="evenodd" stroke="none" />
    <path d="M137.666 254.141C137.666 252.169 139.265 250.571 141.237 250.571C143.208 250.571 144.807 252.169 144.807 254.141C144.807 256.113 143.208 257.712 141.237 257.712C139.265 257.712 137.666 256.113 137.666 254.141Z" id="Circle" fill="#FFFFFF" fill-rule="evenodd" stroke="none" />
    <path d="M148.021 254.141C148.021 252.169 149.619 250.571 151.591 250.571C153.563 250.571 155.161 252.169 155.161 254.141C155.161 256.113 153.563 257.712 151.591 257.712C149.619 257.712 148.021 256.113 148.021 254.141Z" id="Circle" fill="#FFFFFF" fill-rule="evenodd" stroke="none" />
    <path d="M138.413 254.141C138.413 252.564 139.692 251.285 141.269 251.285C142.847 251.285 144.126 252.564 144.126 254.141C144.126 255.719 142.847 256.997 141.269 256.997C139.692 256.997 138.413 255.719 138.413 254.141Z" id="Circle" fill="#3F3D56" fill-rule="evenodd" stroke="none" />
    <path d="M308.944 255.395L305.03 255.395L303.168 240.299L308.944 240.299L308.944 255.395L308.944 255.395Z" id="Polygon" fill="#FFB6B6" fill-rule="evenodd" stroke="none" />
    <path d="M311.01 262.175L308.203 262.175L307.702 259.525L306.419 262.175L298.975 262.175C298.243 262.175 297.596 261.699 297.378 261C297.16 260.301 297.422 259.541 298.024 259.125L303.969 255.02L303.969 252.341L310.221 252.714L311.01 262.175Z" id="Shape" fill="#2F2E41" stroke="none" />
    <path d="M286.45 252.048L282.765 253.367L275.923 239.783L281.361 237.836L286.45 252.048L286.45 252.048Z" id="Polygon" fill="#FFB6B6" fill-rule="evenodd" stroke="none" />
    <path d="M291.183 255.884L288.758 257.298L286.99 255.261L287.217 258.197L280.788 261.948C280.155 262.317 279.356 262.231 278.815 261.737C278.275 261.243 278.118 260.455 278.429 259.792L281.495 253.251L280.145 250.937L285.734 248.108L291.183 255.884Z" id="Shape" fill="#2F2E41" stroke="none" />
    <path d="M309.685 246.171L309.637 246.171L308.806 219.043C309.899 216.933 309.864 214.417 308.713 212.339L308.593 212.124L308.902 210.692C309.299 208.853 309.117 206.936 308.381 205.204L307.605 179.899C310.378 161.93 297.381 147.86 297.381 147.86L276.586 147.86L273.121 164.811L262.025 207.228C261.027 208.744 260.824 210.65 261.48 212.343L277.239 243.518L277.117 243.579C276.638 243.846 276.454 244.442 276.698 244.933C276.904 245.53 277.425 245.891 277.863 245.74L284.006 242.634C284.484 242.366 284.669 241.77 284.425 241.279C284.219 240.683 283.697 240.321 283.26 240.472L282.549 240.832L277.794 217.397L277.626 212.616L277.973 207.191L288.197 183.967L294.262 213.972L303.2 246.473C302.85 246.79 302.732 247.289 302.902 247.729C303.073 248.169 303.497 248.459 303.969 248.457L309.685 248.457C310.316 248.457 310.828 247.946 310.828 247.314C310.828 246.683 310.316 246.171 309.685 246.171L309.685 246.171Z" id="Shape" fill="#2F2E41" stroke="none" />
    <path d="M299.705 135.857L299.15 142.052C299.15 142.052 298.91 147.197 298.15 148.334C297.396 149.466 276.807 149.609 276.807 149.609C276.807 149.609 275.447 142.275 274.275 135.857L299.705 135.857Z" id="Shape" fill="#FFB6B6" stroke="none" />
    <path d="M278.817 86.673C278.817 80.8306 283.553 76.0944 289.396 76.0944C295.238 76.0944 299.974 80.8306 299.974 86.673C299.974 92.5154 295.238 97.2516 289.396 97.2516C283.553 97.2516 278.817 92.5154 278.817 86.673Z" id="Circle" fill="#FFB6B6" fill-rule="evenodd" stroke="none" />
    <path d="M294.824 99.2755L286.333 100.274C285.599 100.361 285.001 100.903 284.843 101.625L283.493 107.804L275.076 117.716C275.076 117.716 272.054 123.383 273.187 129.806C274.32 136.228 274.818 141.001 274.818 141.001C274.818 141.001 297.397 149.466 298.152 148.333C298.908 147.199 299.153 142.051 299.153 142.051L302.176 108.426C302.176 108.426 298.775 102.759 296.886 102.759C295.667 102.718 295.824 99.9741 294.824 99.2755L294.824 99.2755Z" id="Shape" fill="#6C63FF" stroke="none" />
    <path d="M291.075 121.001L287.297 148.959L283.334 149.165L291.075 121.001L291.075 121.001Z" id="Polygon" fill="#000000" fill-opacity="0.2" fill-rule="evenodd" stroke="none" />
    <path d="M272.433 140.481C272.433 139.052 273.398 137.894 274.589 137.894C275.78 137.894 276.745 139.052 276.745 140.481C276.745 141.91 275.78 143.068 274.589 143.068C273.398 143.068 272.433 141.91 272.433 140.481Z" id="Oval" fill="#6C63FF" fill-rule="evenodd" stroke="none" />
    <path d="M289.359 175.029C290.269 174.124 290.731 172.862 290.621 171.584C290.511 170.305 289.841 169.141 288.79 168.405L295.867 134.153L288.232 136.562L282.538 169.698C281.392 171.586 281.84 174.033 283.581 175.393C285.321 176.753 287.804 176.597 289.359 175.029L289.359 175.029Z" id="Shape" fill="#FFB6B6" stroke="none" />
    <path d="M294.988 103.68C294.988 103.68 300.076 101.477 303.165 107.022C306.254 112.567 301.796 131.839 301.171 134.967C300.545 138.095 291.966 153.004 291.966 153.004L283.392 151.289L294.988 103.68Z" id="Shape" fill="#6C63FF" stroke="none" />
    <path d="M284.584 76.5604C288.252 74.0377 291.482 73.6535 294.136 74.369C294.479 73.8369 294.962 73.4086 295.531 73.13C297.6 67.9156 303.898 64.784 309.303 66.3063C314.742 67.8385 318.496 73.8639 317.472 79.4218C316.838 82.8668 314.67 85.85 313.798 89.2426C312.109 95.8102 316.227 103.333 322.67 105.45C316.57 106.675 309.856 102.949 307.668 97.1256C306.605 94.2969 306.541 91.2085 306.406 88.1897C306.271 85.171 306.027 82.0615 304.659 79.3671C303.742 77.5191 302.219 76.0414 300.344 75.1807C300.685 76.2342 300.498 77.3872 299.842 78.279C301.272 80.0709 302.051 82.0088 302.051 83.1693C305.022 88.6004 300.773 93.2654 295.342 96.2369C293.176 97.4283 290.674 97.8644 288.233 97.4763L288.005 96.5063L287.698 97.38L286.67 100.309C285.484 100.883 284.309 101.511 283.144 102.195C283.587 100.117 283.945 98.0421 284.191 96.0136C284.532 93.2528 283.343 89.1425 282.485 86.643C281.954 85.1026 281.681 83.4846 281.678 81.8549L281.678 81.7836L280.842 84.4664L277.802 83.1693C278.367 79.9245 277.802 76.2409 284.584 76.5604L284.584 76.5604Z" id="Shape" fill="#2F2E41" stroke="none" />
    <path d="M347.477 262.884C347.476 263.259 347.172 263.563 346.797 263.564L218.026 263.564C217.783 263.564 217.559 263.435 217.437 263.224C217.316 263.014 217.316 262.754 217.437 262.544C217.559 262.333 217.783 262.204 218.026 262.204L346.797 262.204C346.978 262.203 347.151 262.275 347.279 262.402C347.406 262.53 347.478 262.703 347.477 262.884L347.477 262.884Z" id="Shape" fill="#CCCCCC" stroke="none" />
  </g>
</svg>