<?xml version="1.0" encoding="utf-8"?>
<svg width="350px" height="271.6859px" viewBox="0 0 350 271.6859" version="1.1" xmlns:xlink="http://www.w3.org/1999/xlink" xmlns="http://www.w3.org/2000/svg">
  <defs>
    <path d="M0 0L350 0L350 271.686L0 271.686L0 0Z" id="path_1" />
    <clipPath id="mask_1">
      <use xlink:href="#path_1" />
    </clipPath>
  </defs>
  <g id="undraw_connection_re_lcud">
    <path d="M0 0L350 0L350 271.686L0 271.686L0 0Z" id="Background" fill="#FFFFFF" fill-opacity="0" fill-rule="evenodd" stroke="none" />
    <g clip-path="url(#mask_1)">
      <path d="M45.661 119.554C32.6326 114.082 22.1886 103.836 16.467 90.9153C13.2659 83.5959 11.703 75.6586 10.8131 67.7195C9.94009 59.9306 9.76183 51.7144 13.1139 44.6297C16.8473 36.7391 24.4483 31.3872 33.1355 30.5322C41.8227 29.6773 50.3212 33.4449 55.521 40.4563C57.7213 43.4231 59.2683 46.9829 59.3077 50.6763C59.3905 58.4235 53.1611 64.6409 50.4283 71.8905C47.6042 79.3823 48.6221 87.6831 49.1022 95.6751C49.5823 103.667 49.278 112.331 44.4287 118.702" id="Shape" fill="#F2F2F2" stroke="none" />
      <path d="M279.324 217.516C293.083 214.293 305.089 205.933 312.886 194.147C317.263 187.464 320.128 179.899 322.329 172.219C324.489 164.685 326.035 156.614 323.912 149.069C321.547 140.666 314.945 134.122 306.522 131.83C298.099 129.538 289.091 131.835 282.795 137.881C280.13 140.44 278.011 143.692 277.356 147.327C275.983 154.952 281.088 162.121 282.573 169.725C284.108 177.583 281.72 185.597 279.914 193.397C278.107 201.197 276.962 209.791 280.681 216.881" id="Shape" fill="#F2F2F2" stroke="none" />
      <path d="M174.394 205.075C154.783 205.137 135.703 198.706 120.13 186.785C104.883 175.136 93.7436 158.932 88.3283 140.524L89.1037 140.298C100.055 177.963 135.128 204.268 174.394 204.268C186.135 204.29 197.762 201.97 208.595 197.444L208.906 198.189C197.975 202.756 186.242 205.097 174.394 205.075L174.394 205.075Z" id="Shape" fill="#E6E6E6" stroke="none" />
      <path d="M259.172 88.9114C247.522 51.6671 213.453 26.6436 174.394 26.6436C162.82 26.6226 151.355 28.877 140.651 33.2785L140.343 32.5318C169.469 20.6035 202.715 24.803 227.96 43.5992C243.065 54.9154 254.249 70.6761 259.943 88.6705L259.172 88.9114Z" id="Shape" fill="#E6E6E6" stroke="none" />
      <path d="M283.391 233.333C246.663 233.333 216.782 203.453 216.782 166.724C216.782 129.996 246.663 100.115 283.391 100.115C320.119 100.115 350 129.996 350 166.724C350 203.453 320.119 233.333 283.391 233.333L283.391 233.333ZM283.391 100.923C247.108 100.923 217.589 130.441 217.589 166.724C217.589 203.008 247.108 232.526 283.391 232.526C319.674 232.526 349.193 203.008 349.193 166.724C349.193 130.441 319.674 100.923 283.391 100.923L283.391 100.923Z" id="Shape" fill="#3F3D56" fill-rule="evenodd" stroke="none" />
      <path d="M66.609 133.218C29.8806 133.218 0 103.337 0 66.609C0 29.8806 29.8806 0 66.609 0C103.337 0 133.218 29.8806 133.218 66.609C133.218 103.337 103.337 133.218 66.609 133.218L66.609 133.218ZM66.609 0.807382C30.3259 0.807382 0.807382 30.3259 0.807382 66.609C0.807382 102.892 30.3259 132.411 66.609 132.411C102.892 132.411 132.411 102.892 132.411 66.609C132.411 30.3259 102.892 0.807382 66.609 0.807382L66.609 0.807382Z" id="Shape" fill="#3F3D56" fill-rule="evenodd" stroke="none" />
      <path d="M61.43 66.9835L55.548 78.4074L61.3559 81.7367C61.3559 81.7367 65.3401 68.9047 65.4574 68.4178C66.6873 67.9151 67.4796 66.7057 67.4491 65.3774C67.4186 64.0491 66.5718 62.8773 65.3201 62.4316C64.0685 61.9859 62.6716 62.3586 61.8084 63.3686C60.9452 64.3787 60.7947 65.8166 61.43 66.9835L61.43 66.9835Z" id="Shape" fill="#A0616A" stroke="none" />
      <path d="M31.2438 68.5374C33.8676 78.2585 43.2985 84.4326 51.1298 91.8347C53.0798 92.5189 55.2277 92.3502 57.0469 91.3699C58.866 90.3896 60.1881 88.6884 60.6889 86.6835L63.3284 76.3538L56.6197 76.1745L53.8434 79.1918L44.8601 72.7905L31.2438 68.5374Z" id="Shape" fill="#3F3D56" stroke="none" />
      <path d="M273.488 177.074C275.857 177.229 277.672 179.242 277.581 181.614C277.569 181.845 277.537 182.076 277.487 182.302L290.422 190.451L283.27 193.614L272.084 185.391C270.186 184.811 268.917 183.024 268.994 181.041C269.106 178.734 271.067 176.955 273.374 177.067C273.412 177.069 273.45 177.071 273.488 177.074L273.488 177.074Z" id="Shape" fill="#FFB6B6" stroke="none" />
      <path d="M285.962 186.747L282.756 193.362L295.431 201.518C297.265 202.708 299.584 202.864 301.561 201.929L301.561 201.929C303.988 200.767 305.354 198.139 304.911 195.485L300.798 172.004C300.225 168.593 297.085 166.224 293.647 166.611L293.647 166.611C290.255 166.982 287.806 170.032 288.177 173.423C288.184 173.487 288.192 173.551 288.201 173.614C288.232 173.84 288.275 174.064 288.33 174.285L292.82 190.983L285.962 186.747Z" id="Shape" fill="#6C63FF" stroke="none" />
      <path d="M274.442 189.429L269.668 177.113C269.329 176.235 269.765 175.248 270.642 174.907L273.326 173.867C274.204 173.528 275.19 173.963 275.531 174.84L280.305 187.157C280.644 188.034 280.208 189.021 279.331 189.362L276.647 190.402C275.769 190.741 274.783 190.306 274.442 189.429L274.442 189.429Z" id="Shape" fill="#3F3D56" stroke="none" />
      <path d="M271.199 175.414C270.727 175.597 270.492 176.129 270.675 176.602L275.448 188.918C275.632 189.391 276.163 189.626 276.637 189.443L279.321 188.403C279.793 188.219 280.028 187.687 279.845 187.214L275.072 174.898C274.888 174.425 274.357 174.191 273.884 174.373L271.199 175.414Z" id="Shape" fill="#6C63FF" stroke="none" />
      <path d="M303.188 215.128L285.061 215.128L285.061 197.001L303.188 197.001L303.188 215.128Z" id="Rectangle" fill="#FFB8B8" fill-rule="evenodd" stroke="none" />
      <path d="M242.073 250.386L235.15 248.057L231.295 266.901L235.986 268.479L242.073 250.386L242.073 250.386Z" id="Polygon" fill="#FFB6B6" fill-rule="evenodd" stroke="none" />
      <path d="M254.35 246.801L247.242 248.482L253.927 266.518L258.743 265.378L254.35 246.801L254.35 246.801Z" id="Polygon" fill="#FFB6B6" fill-rule="evenodd" stroke="none" />
      <path d="M302.538 219.864C306.171 244.085 257.788 229.765 257.788 229.765L242.618 250.692L233.737 249.077C233.737 249.077 237.733 236.514 244.87 219.673C248.039 212.194 284.028 214.021 284.028 214.021L284.775 208.157L305.364 207.753L302.538 219.864Z" id="Shape" fill="#2F2E41" stroke="none" />
      <path d="M256.261 224.569L243.084 224.872C245.196 243.041 247.059 250.288 247.059 250.288L254.729 247.866L256.261 224.569Z" id="Shape" fill="#2F2E41" stroke="none" />
      <path d="M292.182 167.545L295.831 162.855L301.035 162.629L301.555 167.04L304.134 168.229C306.709 178.012 307.107 188.24 305.299 198.194L305.299 198.194L305.299 198.194C304.595 198.856 304.305 199.848 304.54 200.785L304.707 201.452L304.692 201.476C304.143 202.342 303.957 203.389 304.173 204.391L304.173 204.391L305.405 206.58C306.299 208.172 306.448 210.078 305.811 211.79C305.173 213.502 303.815 214.848 302.097 215.468C294.527 218.212 287.43 219.234 282.18 211.534L280.529 184.701L292.182 167.545Z" id="Shape" fill="#6C63FF" stroke="none" />
      <path d="M286.381 154.477C286.381 149.162 290.69 144.854 296.004 144.854C301.319 144.854 305.628 149.162 305.628 154.477C305.628 159.792 301.319 164.1 296.004 164.1C290.69 164.1 286.381 159.792 286.381 154.477Z" id="Circle" fill="#FFB8B8" fill-rule="evenodd" stroke="none" />
      <path d="M300.835 142.876C304.91 142.955 308.142 146.734 308.053 151.318C311.069 154.464 310.072 158.314 307.552 162.431C302.943 162.966 301.868 163.189 297.826 164.837L297.293 162.349L296.086 165.589C295.059 166.063 294.04 166.583 293.028 167.149C292.301 163.814 292.481 160.573 294.435 157.749C296.171 155.241 291.947 152.263 288.926 152.684L288.926 152.684L288.97 150.38L288.211 152.67C287.033 153.536 285.731 153.223 284.395 152.597L284.395 152.597C282.228 141.338 299 138.26 300.835 142.876L300.835 142.876Z" id="Shape" fill="#2F2E41" stroke="none" />
      <path d="M238.118 271.667L235.034 271.264L234.863 268.28L233.073 271.008L224.892 269.939C224.088 269.834 223.445 269.218 223.305 268.418C223.166 267.618 223.563 266.821 224.285 266.451L231.407 262.792L231.792 259.848L238.61 261.156L238.118 271.667Z" id="Shape" fill="#2F2E41" stroke="none" />
      <path d="M260.513 269.968L257.428 270.365L256.503 267.523L255.467 270.618L247.284 271.671C246.479 271.774 245.701 271.342 245.362 270.605C245.024 269.867 245.204 268.995 245.808 268.452L251.761 263.098L251.382 260.154L258.308 259.679L260.513 269.968Z" id="Shape" fill="#2F2E41" stroke="none" />
      <path d="M274.649 179.326C277.017 179.481 278.832 181.493 278.742 183.865C278.729 184.097 278.698 184.327 278.647 184.553L291.582 192.702L284.431 195.865L273.244 187.642C271.346 187.062 270.077 185.276 270.154 183.293C270.266 180.986 272.227 179.206 274.534 179.318C274.573 179.32 274.611 179.323 274.649 179.326L274.649 179.326Z" id="Shape" fill="#FFB6B6" stroke="none" />
      <path d="M287.122 188.999L283.916 195.613L296.592 203.77C298.425 204.96 300.745 205.115 302.721 204.18L302.721 204.18C305.148 203.018 306.515 200.391 306.072 197.736L301.959 174.256C301.385 170.844 298.245 168.476 294.807 168.862L294.807 168.862C291.415 169.233 288.966 172.283 289.337 175.675C289.344 175.739 289.352 175.802 289.361 175.866C289.392 176.091 289.436 176.315 289.491 176.536L293.981 193.235L287.122 188.999Z" id="Shape" fill="#6C63FF" stroke="none" />
      <path d="M44.5735 187.723L48.6395 189.557L57.6491 174.747L51.6482 172.04L44.5735 187.723L44.5735 187.723Z" id="Polygon" fill="#A0616A" fill-rule="evenodd" stroke="none" />
      <path d="M42.5167 191.899L55.0197 197.54L55.091 197.382C56.3034 194.694 55.1077 191.532 52.4202 190.32L52.4199 190.32L50.9179 187.557L45.8749 187.367L44.7835 186.875L42.5167 191.899Z" id="Shape" fill="#2F2E41" stroke="none" />
      <path d="M94.9315 167.582L99.2256 166.377L96.6194 149.238L90.281 151.018L94.9315 167.582L94.9315 167.582Z" id="Polygon" fill="#A0616A" fill-rule="evenodd" stroke="none" />
      <path d="M96.0378 172.105L109.244 168.397L109.197 168.23C108.4 165.392 105.453 163.736 102.614 164.533L102.614 164.533L99.6876 163.38L95.7007 166.474L94.5479 166.798L96.0378 172.105Z" id="Shape" fill="#2F2E41" stroke="none" />
      <path d="M29.9371 117.505C30.0469 120.682 36.8038 129.254 40.3574 130.483C40.9614 130.692 41.3144 130.807 41.3144 130.807L42.5513 130.433L57.5294 125.901C60.1521 127.444 67.9758 128.229 74.3954 128.621C79.5049 128.932 82.3529 131.603 82.3529 131.603C83.8603 143.067 88.206 151.425 93.2174 161.696L99.2316 160.651L93.5499 122.389C93.299 120.7 92.0644 119.324 90.4125 118.892L49.5409 108.201C49.5409 108.201 47.2868 107.793 42.533 110.086C34.7066 113.862 29.8586 115.193 29.9371 117.505L29.9371 117.505Z" id="Shape" fill="#2F2E41" stroke="none" />
      <path d="M37.7469 116.89C36.3761 119.758 38.4074 130.482 40.991 133.214L41.6768 133.681L41.9086 133.802C43.4585 139.044 60.0898 154.377 60.0898 154.377C54.472 161.533 49.4657 170.264 47.2318 180.046L53.7276 182.42L72.0126 155.123C72.9929 153.659 72.9719 151.744 71.9598 150.302L64.5003 139.676L52.3453 116.132C43.6599 115.864 38.7455 114.804 37.7469 116.89L37.7469 116.89Z" id="Shape" fill="#2F2E41" stroke="none" />
      <path d="M30.1815 118.754C30.1613 118.754 29.6852 117.508 29.6756 117.505C29.5137 117.46 27.3222 117.243 27.815 113.615L28.4456 109.622L27.83 106.096L26.7946 105.061L28.4587 103.397L27.4388 95.8493L27.0473 80.7382C26.0646 75.5476 26.3212 70.8002 31.0818 68.5141L36.5396 63.4518L42.75 63.3766L49.7959 67.5536L53.2096 74.3592L54.5337 92.8029L55.5223 95.1098L55.4376 95.1864C55.4311 95.1923 54.7724 95.7879 54.4766 96.1154C54.3332 96.319 54.6021 97.839 54.9342 99.1296L55.36 102.315L54.2869 103.082L55.682 104.73L59.4853 111.159L59.2575 111.102C59.0008 111.038 56.609 114.628 30.3573 118.621C30.2361 118.639 30.2318 118.754 30.1815 118.754L30.1815 118.754Z" id="Shape" fill="#3F3D56" stroke="none" />
      <path d="M60.2414 78.8377L58.0682 77.7037C57.3583 77.3323 57.083 76.4563 57.4529 75.7455L62.656 65.774C63.0274 65.0641 63.9034 64.7888 64.6142 65.1587L66.7874 66.2927C67.4974 66.6642 67.7726 67.5402 67.4027 68.2509L62.1996 78.2224C61.8282 78.9323 60.9521 79.2076 60.2414 78.8377L60.2414 78.8377Z" id="Shape" fill="#3F3D56" stroke="none" />
      <path d="M64.0945 65.5346C63.7115 65.3353 63.2394 65.4837 63.0392 65.8662L57.8361 75.8377C57.6368 76.2207 57.7852 76.6927 58.1677 76.8929L60.3409 78.0269C60.724 78.2262 61.196 78.0779 61.3962 77.6953L66.5993 67.7239C66.7986 67.3408 66.6503 66.8688 66.2677 66.6686L64.0945 65.5346Z" id="Shape" fill="#6C63FF" stroke="none" />
      <path d="M32.1647 53.1359C32.1647 48.2319 36.1402 44.2564 41.0442 44.2564C45.9482 44.2564 49.9237 48.2319 49.9237 53.1359C49.9237 58.0399 45.9482 62.0154 41.0442 62.0154C36.1402 62.0154 32.1647 58.0399 32.1647 53.1359Z" id="Circle" fill="#A0616A" fill-rule="evenodd" stroke="none" />
      <path d="M36.677 58.855C36.2877 58.5454 35.802 58.3823 35.3048 58.3942C34.9927 58.4455 34.7176 58.6282 34.5493 58.8959C34.4553 59.0141 34.308 59.0768 34.1577 59.0625C33.2103 59.097 31.1908 57.3393 31.0527 53.9479C30.987 52.3361 30.0227 49.6087 31.5579 48.1316C31.6608 47.5354 32.8596 41.3741 38.2634 41.2043C43.7958 41.0285 47.4786 42.1398 48.3633 44.2483L48.3633 44.2483C48.9777 45.9223 49.4448 47.6467 49.7592 49.402L49.9447 50.4456L49.5113 49.4783C49.5031 49.4602 48.7125 47.7283 47.2463 47.1506C47.2226 47.4325 47.1509 47.7082 47.0344 47.966C46.556 49.0027 45.35 49.6793 43.962 49.6898C43.0029 49.6602 42.0572 49.4568 41.1707 49.0895C41.3758 49.3854 41.388 49.7741 41.2019 50.0823C41.0158 50.3905 40.6661 50.5606 40.3087 50.5169L40.0521 50.485C39.8853 50.4641 39.7273 50.5653 39.6764 50.7255C39.6255 50.8858 39.6961 51.0595 39.8444 51.1388L40.0703 51.2596L39.7961 51.3922C37.5259 52.405 36.2246 54.8218 36.6288 57.2746L36.9486 59.0731L36.677 58.855Z" id="Shape" fill="#2F2E41" stroke="none" />
      <path d="M177.265 196.064C176.767 196.087 176.309 195.797 176.116 195.337C175.924 194.878 176.04 194.347 176.405 194.009L176.487 193.686C176.476 193.661 176.465 193.635 176.454 193.609C175.954 192.427 174.794 191.662 173.511 191.666C172.228 191.671 171.073 192.446 170.582 193.631C169.621 195.944 168.398 198.261 168.097 200.707C167.964 201.789 168.02 202.885 168.262 203.947C166.006 199.026 164.835 193.677 164.827 188.263C164.827 186.914 164.902 185.556 165.053 184.206C165.178 183.093 165.352 181.991 165.573 180.9C166.782 174.981 169.378 169.432 173.148 164.711C174.973 163.715 176.449 162.184 177.376 160.324C177.712 159.655 177.95 158.942 178.082 158.205C177.876 158.232 177.667 158.249 177.461 158.262C177.397 158.266 177.329 158.269 177.265 158.272L177.241 158.274C176.779 158.294 176.348 158.042 176.139 157.629C175.931 157.216 175.985 156.719 176.276 156.36C176.365 156.251 176.454 156.141 176.543 156.032C176.678 155.863 176.816 155.698 176.951 155.529C176.967 155.513 176.981 155.496 176.995 155.479C177.15 155.286 177.306 155.097 177.461 154.905C177.177 154.465 176.796 154.097 176.347 153.829C174.792 152.918 172.646 153.548 171.522 154.956C170.395 156.363 170.182 158.337 170.574 160.095C170.959 161.59 171.595 163.01 172.457 164.292C172.372 164.4 172.285 164.505 172.2 164.613C170.658 166.596 169.314 168.725 168.187 170.97C168.461 168.455 168.134 165.911 167.233 163.546C166.32 161.343 164.608 159.488 163.101 157.583C161.29 155.295 157.577 156.294 157.258 159.194C157.255 159.222 157.252 159.25 157.249 159.278C157.473 159.404 157.692 159.538 157.906 159.68C158.458 160.049 158.726 160.718 158.583 161.365C158.44 162.013 157.913 162.506 157.258 162.607L157.225 162.612C157.305 163.419 157.446 164.219 157.647 165.004C158.824 169.438 161.797 173.18 165.85 175.329C165.981 175.397 166.11 175.464 166.241 175.529C165.109 178.737 164.399 182.078 164.129 185.469C163.976 187.47 163.985 189.48 164.156 191.479L164.146 191.408C163.714 189.185 162.528 187.179 160.788 185.729C158.205 183.607 154.554 182.825 151.767 181.119C151.162 180.731 150.387 180.729 149.78 181.114C149.173 181.5 148.846 182.202 148.94 182.915C148.944 182.939 148.948 182.964 148.951 182.989C149.367 183.158 149.771 183.353 150.163 183.573C150.387 183.699 150.606 183.833 150.82 183.975C151.372 184.343 151.64 185.013 151.497 185.66C151.354 186.308 150.827 186.801 150.172 186.902L150.139 186.907C150.116 186.91 150.095 186.913 150.072 186.917C150.782 188.612 151.778 190.172 153.017 191.529C156.112 194.85 160.437 196.748 164.976 196.776L164.979 196.776C165.589 199.425 166.472 202.003 167.615 204.47L177.029 204.47C177.063 204.365 177.093 204.257 177.123 204.153C176.252 204.207 175.377 204.155 174.518 203.997C175.217 203.14 175.915 202.276 176.614 201.419C176.629 201.403 176.644 201.386 176.658 201.369C177.012 200.93 177.37 200.495 177.724 200.056L177.724 200.056C177.743 198.711 177.589 197.37 177.265 196.065L177.265 196.064Z" id="Shape" fill="#E6E6E6" stroke="none" />
      <path d="M222.518 50.0848C222.89 50.4156 223.016 50.9438 222.833 51.4068C222.65 51.8699 222.197 52.1692 221.699 52.1561L221.415 52.3307C221.405 52.3567 221.395 52.3827 221.384 52.4087C220.918 53.6039 221.214 54.9623 222.137 55.8544C223.059 56.7464 224.426 56.9978 225.605 56.4921C227.908 55.5058 230.401 54.6998 232.324 53.1583C233.173 52.4766 233.898 51.6527 234.466 50.7232C232.647 55.822 229.753 60.4701 225.98 64.3522C225.032 65.3254 224.03 66.2449 222.98 67.1062C222.118 67.8117 221.227 68.4778 220.307 69.1044C215.309 72.4998 209.577 74.6612 203.582 75.4112C201.58 74.8506 199.455 74.9171 197.493 75.6016C196.785 75.8459 196.117 76.1912 195.508 76.6269C195.675 76.7513 195.836 76.8852 195.993 77.0192C196.041 77.0615 196.092 77.1062 196.14 77.1485L196.158 77.1646C196.504 77.4723 196.636 77.954 196.497 78.3952C196.358 78.8363 195.973 79.1546 195.514 79.2084C195.374 79.2247 195.234 79.2409 195.094 79.257C194.879 79.2837 194.665 79.3055 194.45 79.3321C194.428 79.3327 194.406 79.3346 194.384 79.3378C194.138 79.3672 193.895 79.3942 193.65 79.4236C193.546 79.9362 193.561 80.466 193.696 80.9716C194.174 82.7097 196.151 83.7557 197.938 83.5323C199.727 83.3113 201.257 82.046 202.204 80.5139C202.972 79.174 203.507 77.7131 203.785 76.1937C203.921 76.1753 204.057 76.1616 204.193 76.1431C206.681 75.7994 209.13 75.2127 211.503 74.3913C209.552 76.0012 208.01 78.0515 207.005 80.3735C206.122 82.5887 206.053 85.1124 205.803 87.5285C205.503 90.4308 208.859 92.3073 211.111 90.4531C211.133 90.4351 211.155 90.4171 211.176 90.3991C211.104 90.1523 211.041 89.9033 210.986 89.6521C210.849 89.0034 211.123 88.3366 211.678 87.9731C212.232 87.6095 212.953 87.6237 213.493 88.0089L213.52 88.0281C214.026 87.3945 214.484 86.7234 214.888 86.0205C217.139 82.0235 217.622 77.2689 216.22 72.9009C216.173 72.7607 216.128 72.6229 216.079 72.4851C219.129 70.9779 221.969 69.0805 224.53 66.8406C226.036 65.5147 227.432 64.0691 228.705 62.5181L228.663 62.5759C227.421 64.4693 226.87 66.7335 227.104 68.9861C227.472 72.3094 229.541 75.4169 230.346 78.5841C230.508 79.2843 231.062 79.8268 231.766 79.9743C232.469 80.1218 233.194 79.8475 233.624 79.2713C233.639 79.2509 233.653 79.2305 233.668 79.21C233.489 78.7988 233.335 78.3768 233.208 77.9465C233.136 77.6997 233.072 77.4507 233.018 77.1995C232.88 76.5508 233.155 75.8841 233.709 75.5205C234.264 75.157 234.985 75.1712 235.525 75.5563L235.552 75.5755C235.571 75.5896 235.588 75.6013 235.607 75.6153C236.282 73.9059 236.657 72.093 236.717 70.2561C236.819 65.7188 235.045 61.3402 231.815 58.1519L231.813 58.1496C233.225 55.8273 234.392 53.3644 235.295 50.8008L228.554 44.23C228.456 44.2813 228.359 44.3375 228.265 44.3912C228.927 44.9602 229.517 45.6081 230.022 46.3205C228.923 46.4468 227.82 46.5779 226.722 46.7041C226.699 46.7047 226.677 46.7066 226.655 46.7098C226.095 46.7766 225.535 46.8387 224.975 46.9055L224.975 46.9058C224.023 47.8555 223.197 48.9239 222.518 50.0845L222.518 50.0848Z" id="Shape" fill="#E6E6E6" stroke="none" />
      <path d="M60.2158 76.4363L51.7264 86.0816L56.5473 90.7263C56.5473 90.7263 63.5396 79.2527 63.772 78.809C65.0874 78.6214 66.1506 77.6416 66.4448 76.346C66.7391 75.0503 66.2034 73.7074 65.0982 72.97C63.993 72.2326 62.5474 72.2535 61.464 73.0227C60.3806 73.7919 59.8841 75.1497 60.2158 76.4363L60.2158 76.4363Z" id="Shape" fill="#A0616A" stroke="none" />
      <path d="M30.5615 70.5845C30.7364 80.6519 38.3776 88.9389 44.1682 98.0268C45.8924 99.1657 48.0167 99.5257 50.02 99.0184C52.0232 98.5112 53.7202 97.1836 54.6946 95.3613L59.7727 85.9867L53.3101 84.1773L49.8819 86.4268L42.7302 78.0287L30.5615 70.5845Z" id="Shape" fill="#3F3D56" stroke="none" />
    </g>
  </g>
</svg>