<?xml version="1.0" encoding="utf-8"?>
<svg width="1920.0005px" height="1079px" viewBox="0 0 1920.0005 1079" version="1.1" xmlns:xlink="http://www.w3.org/1999/xlink" xmlns="http://www.w3.org/2000/svg">
  <path d="M0.000488281 0L1920 0L1920 972.23C1920 972.23 1740.28 1006.24 1396.24 1036.24C1052.2 1066.25 736.073 907.767 503.831 868.205C45.8305 790.187 0.000488281 972.23 0.000488281 972.23L0.000488281 0Z" id="Background-SVG" fill="#7070FF" fill-rule="evenodd" stroke="none" />
  <path d="M0 0L1920 0L1920 777.784C1920 777.784 1740.28 804.99 1396.24 828.996C1052.2 853.002 736.073 726.213 503.83 694.564C45.83 632.149 0 777.784 0 777.784L0 0Z" id="Background-SVG-2" fill="#8585FF" fill-rule="evenodd" stroke="none" />
  <path d="M0 0L1920 0L1920 583.338C1920 583.338 1740.28 603.743 1396.24 621.747C1052.2 639.751 736.073 544.66 503.83 520.923C45.83 474.112 0 583.338 0 583.338L0 0Z" id="Background-SVG-3" fill="#9999FF" fill-rule="evenodd" stroke="none" />
  <path d="M0 0L1920 0L1920 388.892C1920 388.892 1740.28 402.495 1396.24 414.498C1052.2 426.501 736.073 363.107 503.83 347.282C45.83 316.075 0 388.892 0 388.892L0 0Z" id="Background-SVG-4" fill="#ADADFF" fill-rule="evenodd" stroke="none" />
  <path d="M0 0L1920 0L1920 194.446C1920 194.446 1740.28 201.248 1396.24 207.249C1052.2 213.25 736.073 181.553 503.83 173.641C45.83 158.037 0 194.446 0 194.446L0 0Z" id="Background-SVG-5" fill="#B8B8FF" fill-rule="evenodd" stroke="none" />
  <path d="M1166.29 209.871C1440.24 63.5933 1649.93 208.725 1785.5 386.001C1832.29 447.177 1920 606.5 1920 606.5L1920 1079C1920 1079 1581.26 1073.98 1361.28 1038.46C1216.5 1015.09 1101.72 908.213 1028.79 842.983C843.182 676.977 892.335 356.148 1166.29 209.871Z" id="Rectangle" fill="#F8F7FF" fill-rule="evenodd" stroke="none" />
</svg>