<?xml version="1.0" encoding="utf-8"?>
<svg width="350px" height="252.94678px" viewBox="0 0 350 252.94678" version="1.1" xmlns:xlink="http://www.w3.org/1999/xlink" xmlns="http://www.w3.org/2000/svg">
  <defs>
    <path d="M1.63059e-05 4.22935e-05L350 4.22935e-05L350 252.947L1.63059e-05 252.947L1.63059e-05 4.22935e-05Z" id="path_1" />
    <clipPath id="mask_1">
      <use xlink:href="#path_1" />
    </clipPath>
  </defs>
  <g id="undraw_save_to_bookmarks_re_8ajf">
    <path d="M1.63059e-05 4.22935e-05L350 4.22935e-05L350 252.947L1.63059e-05 252.947L1.63059e-05 4.22935e-05Z" id="Background" fill="#FFFFFF" fill-opacity="0" fill-rule="evenodd" stroke="none" />
    <g clip-path="url(#mask_1)">
      <path d="M275.082 22.76C274.198 16.2752 273.089 9.31294 268.516 4.63175C265.583 1.6303 261.552 -0.0426059 257.355 0.000824978C253.159 0.0442558 249.163 1.80025 246.293 4.86174C242.964 8.41352 241.494 13.4008 241.359 18.2671C241.225 23.1335 242.308 27.9458 243.511 32.6633C249.874 32.7904 256.189 31.5472 262.029 29.0183C263.46 28.3197 264.945 27.7368 266.469 27.2752C268.012 26.8825 269.112 27.8706 270.547 28.5597L271.335 27.0512C271.98 28.2514 273.977 27.8956 274.701 26.7416C275.425 25.5877 275.266 24.1099 275.082 22.76L275.082 22.76Z" id="Shape" fill="#2F2E41" stroke="none" />
      <path d="M248.507 50.1403L250.35 40.7292L236.536 34.7489L211.84 22.9176C211.488 20.6701 209.785 18.8731 207.56 18.3999C205.335 17.9267 203.048 18.8755 201.812 20.7852C200.576 22.6948 200.646 25.1693 201.988 27.006C203.331 28.8426 205.667 29.6606 207.862 29.0623L231.376 43.5734L248.507 50.1403Z" id="Shape" fill="#FFB8B8" stroke="none" />
      <path d="M239.234 48.548L249.239 38.3203L249.437 38.3805C249.561 38.4182 261.992 42.2078 269.917 46.0588C271.73 46.8726 273.092 48.4439 273.641 50.3539C274.447 53.0541 273.575 55.9752 271.42 57.7916C269.207 59.7728 266.04 60.2771 263.321 59.0811L239.234 48.548Z" id="Shape" fill="#6C63FF" stroke="none" />
      <path d="M239.203 93.5138L267.337 101.032L273.018 74.4544L247.195 66.4616L239.203 93.5138L239.203 93.5138Z" id="Polygon" fill="#FFB8B8" fill-rule="evenodd" stroke="none" />
      <path d="M270.486 86.3002L243.003 79.9799L237.74 67.2245C236.865 63.5062 238.241 59.6195 241.259 57.2787L251.3 48.8013L256.683 41.9249L256.097 38.2808C255.881 36.7783 256.765 35.3345 258.201 34.8439L265.375 32.2711C267.021 31.6557 268.862 32.4214 269.586 34.0223L270.347 35.7817C270.347 35.7817 273.591 37.3083 275.42 38.167C277.323 39.0326 278.768 40.6687 279.39 42.665C282.189 51.7121 281.435 61.4859 277.28 69.996L270.486 86.3002Z" id="Shape" fill="#6C63FF" stroke="none" />
      <path d="M26.0696 221.702L12.7814 218.147C10.8275 211.191 10.601 203.864 12.1215 196.802C17.9187 208.262 33.4885 210.423 42.7121 219.359C48.4961 225.05 51.3781 233.062 50.5442 241.133L53.7274 250.355C40.651 249.838 28.4569 243.621 20.3576 233.342C18.1406 230.47 16.2941 227.331 14.8617 223.998C20.422 223.183 26.0696 221.702 26.0696 221.702L26.0696 221.702Z" id="Shape" fill="#F2F2F2" stroke="none" />
      <path d="M191.161 252.947L60.9185 252.947C53.6508 252.938 47.7613 247.049 47.7531 239.781L47.7531 67.3251C47.761 60.0579 53.6504 54.1681 60.9181 54.1596L191.161 54.1596C198.429 54.1678 204.318 60.0574 204.327 67.3251L204.327 239.781C204.319 247.048 198.429 252.938 191.162 252.947L191.161 252.947Z" id="Shape" fill="#E6E6E6" stroke="none" />
      <path d="M141.451 242.272L70.0736 242.272C63.4561 242.264 58.0935 236.902 58.086 230.284L58.086 76.8219C58.0936 70.2042 63.4563 64.8417 70.0738 64.8343L182.006 64.8343C188.623 64.8418 193.986 70.2044 193.994 76.8219L193.994 189.73C193.962 218.732 170.458 242.238 141.453 242.272L141.451 242.272Z" id="Shape" fill="#FFFFFF" stroke="none" />
      <path d="M170.84 94.2963L81.2396 94.2963C80.1951 94.2984 79.229 93.7428 78.7053 92.8391C78.1817 91.9353 78.1803 90.8208 78.7017 89.9157C79.223 89.0106 80.1877 88.4526 81.2322 88.452L170.84 88.452C172.453 88.4512 173.762 89.7575 173.764 91.3705C173.766 92.9836 172.46 94.2931 170.847 94.2963L170.84 94.2963Z" id="Shape" fill="#6C63FF" stroke="none" />
      <path d="M170.84 105.843L81.2396 105.843C79.6273 105.841 78.3215 104.533 78.3215 102.921C78.3215 101.309 79.6272 100.001 81.2395 99.9986L170.84 99.9986C172.452 100.001 173.758 101.309 173.758 102.921C173.758 104.533 172.452 105.841 170.84 105.843L170.84 105.843Z" id="Shape" fill="#6C63FF" stroke="none" />
      <path d="M120.079 117.39L81.2396 117.39C80.1946 117.392 79.2283 116.835 78.7053 115.93C78.1824 115.025 78.1824 113.91 78.7053 113.006C79.2283 112.101 80.1946 111.544 81.2397 111.546L120.079 111.546C121.692 111.548 122.997 112.856 122.997 114.468C122.997 116.08 121.692 117.388 120.079 117.39L120.079 117.39Z" id="Shape" fill="#6C63FF" stroke="none" />
      <path d="M170.84 141.574L81.2396 141.574C80.1951 141.576 79.229 141.02 78.7053 140.117C78.1817 139.213 78.1803 138.098 78.7017 137.193C79.223 136.288 80.1877 135.73 81.2322 135.729L170.84 135.729C172.453 135.729 173.762 137.035 173.764 138.648C173.766 140.261 172.46 141.571 170.847 141.574L170.84 141.574Z" id="Shape" fill="#E4E4E4" stroke="none" />
      <path d="M170.84 153.121L81.2396 153.121C79.6273 153.118 78.3215 151.811 78.3215 150.198C78.3215 148.586 79.6272 147.278 81.2395 147.276L170.84 147.276C172.452 147.278 173.758 148.586 173.758 150.198C173.758 151.811 172.452 153.118 170.84 153.121L170.84 153.121Z" id="Shape" fill="#E4E4E4" stroke="none" />
      <path d="M120.079 164.668L81.2396 164.668C80.1946 164.669 79.2283 164.112 78.7053 163.208C78.1824 162.303 78.1824 161.188 78.7053 160.283C79.2283 159.378 80.1946 158.821 81.2397 158.823L120.079 158.823C121.124 158.822 122.091 159.378 122.614 160.283C123.136 161.188 123.136 162.303 122.613 163.208C122.091 164.112 121.124 164.669 120.079 164.668L120.079 164.668Z" id="Shape" fill="#E4E4E4" stroke="none" />
      <path d="M170.84 188.851L81.2396 188.851C80.1951 188.853 79.229 188.298 78.7053 187.394C78.1817 186.49 78.1803 185.376 78.7017 184.471C79.223 183.566 80.1877 183.007 81.2322 183.007L170.84 183.007C172.453 183.006 173.762 184.312 173.764 185.925C173.766 187.538 172.46 188.848 170.847 188.851L170.84 188.851Z" id="Shape" fill="#E4E4E4" stroke="none" />
      <path d="M170.84 200.398L81.2396 200.398C80.1956 200.398 79.2308 199.841 78.7088 198.937C78.1868 198.033 78.1868 196.919 78.7088 196.015C79.2308 195.111 80.1956 194.554 81.2396 194.554L170.84 194.554C171.884 194.554 172.849 195.111 173.371 196.015C173.893 196.919 173.893 198.033 173.371 198.937C172.849 199.841 171.884 200.398 170.84 200.398L170.84 200.398Z" id="Shape" fill="#E4E4E4" stroke="none" />
      <path d="M120.079 211.945L81.2396 211.945C79.6261 211.944 78.3185 210.636 78.3186 209.023C78.3187 207.409 79.6265 206.101 81.24 206.1L120.079 206.1C121.693 206.101 123 207.41 123 209.023C123 210.637 121.692 211.945 120.079 211.945L120.079 211.945Z" id="Shape" fill="#E4E4E4" stroke="none" />
      <path d="M159.906 57.5136C159.906 36.5326 176.914 19.5241 197.895 19.5241C218.876 19.5241 235.885 36.5326 235.885 57.5136C235.885 78.4946 218.876 95.5031 197.895 95.5031C176.914 95.5031 159.906 78.4946 159.906 57.5136Z" id="Circle" fill="#6C63FF" fill-rule="evenodd" stroke="none" />
      <path d="M197.895 90.2404C177.955 90.2377 161.411 74.8162 160.01 54.925C159.948 55.8094 159.906 56.6991 159.906 57.5992C159.916 78.5731 176.921 95.5702 197.895 95.5702C218.869 95.5702 235.874 78.5731 235.885 57.5993C235.885 56.6991 235.842 55.8094 235.78 54.925C234.379 74.8162 217.836 90.2377 197.895 90.2404L197.895 90.2404Z" id="Shape" fill="#231F20" fill-opacity="0.16" stroke="none" />
      <path d="M197.895 76.0782C195.269 76.0752 193.141 73.9469 193.138 71.3206L193.138 43.7922C193.135 42.0911 194.042 40.5182 195.515 39.667C196.987 38.8158 198.803 38.8158 200.276 39.667C201.749 40.5181 202.655 42.091 202.653 43.7922L202.653 71.3205C202.65 73.947 200.521 76.0753 197.895 76.0782L197.895 76.0782Z" id="Shape" fill="#FFFFFF" stroke="none" />
      <path d="M179.373 57.5565C179.376 54.9302 181.505 52.8019 184.131 52.7988L211.659 52.7988C213.36 52.7967 214.933 53.703 215.785 55.1759C216.636 56.6487 216.636 58.464 215.785 59.9369C214.933 61.4098 213.36 62.3161 211.659 62.3139L184.131 62.3139C181.505 62.311 179.376 60.1828 179.373 57.5565L179.373 57.5565Z" id="Shape" fill="#FFFFFF" stroke="none" />
      <path d="M255.003 65.6286L246.919 60.4698L236.298 71.1365L216.249 89.7886C214.029 89.2939 211.733 90.2207 210.478 92.1183C209.224 94.0159 209.27 96.491 210.595 98.3405C211.919 100.19 214.248 101.03 216.448 100.453C218.649 99.8762 220.265 98.0012 220.512 95.7396L242.622 79.168L255.003 65.6286Z" id="Shape" fill="#FFB8B8" stroke="none" />
      <path d="M250.127 73.6755L244.271 60.6216L244.399 60.4595C244.48 60.3577 252.556 50.176 259.04 44.2106C260.461 42.8214 262.422 42.1287 264.4 42.3173C267.207 42.5564 269.606 44.4366 270.509 47.1056C271.543 49.8902 270.853 53.022 268.745 55.1146L250.127 73.6755Z" id="Shape" fill="#6C63FF" stroke="none" />
      <path d="M242.709 18.0599C242.709 11.041 248.399 5.35095 255.418 5.35095C262.437 5.35095 268.127 11.041 268.127 18.0599C268.127 25.0789 262.437 30.7689 255.418 30.7689C248.399 30.7689 242.709 25.0789 242.709 18.0599Z" id="Circle" fill="#FFB8B8" fill-rule="evenodd" stroke="none" />
      <path d="M235.673 243.844L230.419 243.844L227.919 223.579L235.673 223.579L235.673 243.844L235.673 243.844Z" id="Polygon" fill="#FFB8B8" fill-rule="evenodd" stroke="none" />
      <path d="M238.446 252.947L234.678 252.947L234.006 249.389L232.283 252.947L222.29 252.947C221.307 252.947 220.438 252.307 220.145 251.369C219.853 250.43 220.205 249.41 221.014 248.852L228.994 243.34L228.994 239.744L237.388 240.245L238.446 252.947Z" id="Shape" fill="#2F2E41" stroke="none" />
      <path d="M301.522 239.38L296.64 241.323L286.822 223.42L294.027 220.552L301.522 239.38L301.522 239.38Z" id="Polygon" fill="#FFB8B8" fill-rule="evenodd" stroke="none" />
      <path d="M307.465 246.812L303.964 248.206L302.024 245.149L301.739 249.091L292.455 252.787C291.541 253.151 290.497 252.878 289.878 252.114C289.259 251.351 289.209 250.273 289.754 249.455L295.13 241.383L293.8 238.042L301.784 235.403L307.465 246.812Z" id="Shape" fill="#2F2E41" stroke="none" />
      <path d="M237.7 234.534L226.832 234.534L229.835 183.476L227.64 148.868L227.644 148.84L235.833 99.2304C236.477 95.3184 238.218 91.6694 240.854 88.7074L240.953 88.5951L268.359 95.3637L271.114 101.647C280.523 107.243 283.495 138.799 283.617 140.143L287.6 179.481L297.344 227.694L290.482 231.389L290.367 231.16L268.705 188.084L255.024 142.658L246.263 183.542L237.7 234.534Z" id="Shape" fill="#2F2E41" stroke="none" />
      <path d="M271.158 18.658C270.708 15.7039 270.238 12.7251 269.182 9.94354C268.125 7.16196 266.422 4.5566 263.979 2.98087C260.111 0.486106 255.104 0.967253 250.767 2.40231C247.413 3.51213 244.14 5.19895 241.775 7.91079C239.409 10.6227 238.081 14.4922 238.961 18.038C243.587 16.9451 248.213 15.8522 252.838 14.7593L252.332 15.1171C255.41 16.6517 257.609 19.5183 258.295 22.8883C258.965 26.2972 258.068 29.8267 255.853 32.5026C259.007 31.3835 262.162 30.2644 265.317 29.1452C267.264 28.4545 269.349 27.6585 270.503 25.8867C271.842 23.8324 271.531 21.1096 271.158 18.658L271.158 18.658Z" id="Shape" fill="#2F2E41" stroke="none" />
      <path d="M0.666293 252.824L349.334 252.824C349.702 252.824 350 252.526 350 252.158C350 251.79 349.702 251.492 349.334 251.492L0.666293 251.492C0.298317 251.492 0 251.79 0 252.158C0 252.526 0.298301 252.824 0.666293 252.824L0.666293 252.824Z" id="fd990326-c176-439f-9263-07fe4201e145-252" fill="#CCCCCC" stroke="none" />
    </g>
  </g>
</svg>