<?xml version="1.0" encoding="utf-8"?>
<svg width="1920.0005px" height="1081.9999px" viewBox="0 0 1920.0005 1081.9999" version="1.1" xmlns:xlink="http://www.w3.org/1999/xlink" xmlns="http://www.w3.org/2000/svg">
  <path d="M0 1.9999L1920 1.9999L1920 1082L0 1082L0 1.9999Z" id="Background" fill="#F8F7FF" fill-rule="evenodd" stroke="none" />
  <path d="M0.000488281 0L1920 0L1920 972.23C1920 972.23 1740.28 1006.24 1396.24 1036.24C1052.2 1066.25 736.073 907.767 503.831 868.205C45.8305 790.187 0.000488281 972.23 0.000488281 972.23L0.000488281 0Z" id="Background-SVG" fill="#7070FF" fill-rule="evenodd" stroke="none" />
  <path d="M0 1L1920 1L1920 778.784C1920 778.784 1740.28 805.99 1396.24 829.996C1052.2 854.002 736.073 727.213 503.83 695.564C45.83 633.149 0 778.784 0 778.784L0 1Z" id="Background-SVG-2" fill="#8585FF" fill-rule="evenodd" stroke="none" />
  <path d="M0 1L1920 1L1920 584.338C1920 584.338 1740.28 604.743 1396.24 622.747C1052.2 640.751 736.073 545.66 503.83 521.923C45.83 475.112 0 584.338 0 584.338L0 1Z" id="Background-SVG-3" fill="#9999FF" fill-rule="evenodd" stroke="none" />
  <path d="M0 1L1920 1L1920 389.892C1920 389.892 1740.28 403.495 1396.24 415.498C1052.2 427.501 736.073 364.107 503.83 348.282C45.83 317.075 0 389.892 0 389.892L0 1Z" id="Background-SVG-4" fill="#ADADFF" fill-rule="evenodd" stroke="none" />
  <path d="M0 1L1920 1L1920 195.446C1920 195.446 1740.28 202.248 1396.24 208.249C1052.2 214.25 736.073 182.553 503.83 174.641C45.83 159.037 0 195.446 0 195.446L0 1Z" id="Background-SVG-5" fill="#B8B8FF" fill-rule="evenodd" stroke="none" />
  <path d="M1166.29 210.871C1440.24 64.5933 1649.93 209.725 1785.5 387.001C1832.29 448.177 1920 607.5 1920 607.5L1920 1080C1920 1080 1581.26 1074.98 1361.28 1039.46C1216.5 1016.09 1101.72 909.213 1028.79 843.983C843.182 677.977 892.335 357.148 1166.29 210.871Z" id="Rectangle" fill="#F8F7FF" fill-rule="evenodd" stroke="none" />
</svg>