<?xml version="1.0" encoding="utf-8"?>
<svg width="1926.5277px" height="1035.0005px" viewBox="0 0 1926.5277 1035.0005" version="1.1" xmlns:xlink="http://www.w3.org/1999/xlink" xmlns="http://www.w3.org/2000/svg">
  <path d="M0 0L1920 0C1920 0 1920.5 335.424 1920.5 710.001C1920.5 897.336 1440.12 1035.3 960 1035C480.118 1034.7 0.501645 896.244 0.501643 710.001C0.501638 337.424 0 0 0 0Z" id="Rectangle-2" fill="#FFEEDD" fill-rule="evenodd" stroke="none" />
  <path d="M418.47 5.82077e-11L1914.25 5.82077e-11L1914.25 464.927C1914.25 464.927 1981.72 627.57 1654.59 711.972C1327.45 796.375 720.07 789.885 535.499 744.524C132.299 645.435 418.47 5.82077e-11 418.47 5.82077e-11Z" id="Rectangle-4" fill="#FFE7D6" fill-rule="evenodd" stroke="none" />
  <path d="M932.693 0.0005L1922.72 0.0005L1922.72 273.552C1922.72 273.552 1967.38 369.247 1750.86 418.907C1534.33 468.568 1132.32 464.749 1010.15 438.06C743.281 379.758 932.693 0.0005 932.693 0.0005Z" id="Rectangle-6" fill="#FFEBD6" fill-rule="evenodd" stroke="none" />
  <path d="M283.5 216C283.5 160.772 328.272 116 383.5 116C438.728 116 483.5 160.772 483.5 216C483.5 271.228 438.728 316 383.5 316C328.272 316 283.5 271.228 283.5 216Z" id="Oval" fill="#D4BFE6" fill-rule="evenodd" stroke="none" />
  <path d="M1437 216.001C1437 160.772 1481.77 116.001 1537 116.001C1592.22 116.001 1637 160.772 1637 216.001C1637 271.229 1592.22 316 1537 316C1481.77 316 1437 271.229 1437 216.001Z" id="Oval-2" fill="#D4BFE6" fill-rule="evenodd" stroke="none" />
</svg>