<?xml version="1.0" encoding="utf-8"?>
<svg width="292.5px" height="120px" viewBox="0 0 292.5 120" version="1.1" xmlns:xlink="http://www.w3.org/1999/xlink" xmlns="http://www.w3.org/2000/svg">
  <defs>
    <path d="M0 0L292.5 0L292.5 120L0 120L0 0Z" id="path_1" />
    <clipPath id="mask_1">
      <use xlink:href="#path_1" />
    </clipPath>
  </defs>
  <g id="Logo-64x64-2">
    <g id="Mask-Group">
      <path d="M0 0L292.5 0L292.5 120L0 120L0 0Z" id="artboard_1" fill="none" fill-rule="evenodd" stroke="none" />
      <g clip-path="url(#mask_1)">
        <g id="Logo-Sa-Tekstom-#1">
          <path d="M0 0L292.5 0L292.5 120L0 120L0 0Z" id="artboard_1" fill="#FFFFFF" fill-opacity="0" fill-rule="evenodd" stroke="none" />
          <g id="Group" transform="translate(123.27222 42.650757)">
            <path d="M27.4429 21.4004C28.0227 19.844 28.3127 18.1961 28.3127 16.4566C28.3127 14.7323 28.0266 13.1225 27.4545 11.6271C26.8822 10.1319 26.0697 8.83488 25.0168 7.73613C23.9639 6.63751 22.6898 5.77157 21.1944 5.13832C19.6991 4.50519 18.0282 4.18863 16.182 4.18863L15.2893 4.18863L15.2893 1.2207e-05L13.0463 1.2207e-05L13.0463 4.18863L12.1537 4.18863C10.2921 4.18863 8.61361 4.51288 7.11825 5.16138C5.62288 5.80988 4.34878 6.69107 3.29592 7.80494C2.24307 8.91882 1.43054 10.2196 0.858331 11.7074C0.286127 13.1951 2.44141e-05 14.7782 2.44141e-05 16.4566C2.44141e-05 18.2266 0.289946 19.8898 0.869761 21.4463C1.4496 23.0027 2.26976 24.3607 3.33026 25.5203C4.39074 26.6799 5.66485 27.5917 7.15257 28.2556C8.64032 28.9193 10.2921 29.2512 12.1079 29.2512L13.0463 29.2512L13.0463 34.2179L15.2893 34.2179L15.2893 29.2512L16.2277 29.2512C18.0435 29.2512 19.6953 28.9116 21.183 28.2325C22.6707 27.5535 23.9411 26.6342 24.9939 25.4746C26.0468 24.3149 26.8631 22.9569 27.4429 21.4004L27.4429 21.4004ZM12.1537 6.24851L13.0463 6.24851L13.0463 27.1911L12.1079 27.1911C10.7041 27.1911 9.40707 26.9432 8.21688 26.4473C7.0267 25.9514 6.00055 25.2381 5.13844 24.3072C4.27631 23.3764 3.60491 22.2549 3.12426 20.9427C2.64361 19.6304 2.40328 18.1503 2.4033 16.5023C2.40328 14.9917 2.64361 13.607 3.12426 12.3483C3.60491 11.0894 4.28012 10.0098 5.14987 9.10957C6.01962 8.20932 7.04959 7.50738 8.23977 7.00376C9.42996 6.50026 10.7346 6.24851 12.1537 6.24851L12.1537 6.24851ZM25.2114 12.2909C25.6921 13.5574 25.9324 14.9612 25.9324 16.5023C25.9324 18.1198 25.6921 19.5885 25.2114 20.9084C24.7307 22.2283 24.0592 23.3536 23.1971 24.2843C22.335 25.2152 21.3089 25.9324 20.1187 26.4359C18.9285 26.9394 17.6315 27.1911 16.2277 27.1911L15.2893 27.1911L15.2893 6.24851L16.182 6.24851C17.6162 6.24851 18.9285 6.49263 20.1187 6.98088C21.3089 7.46913 22.335 8.15963 23.1971 9.05238C24.0592 9.94501 24.7307 11.0245 25.2114 12.2909L25.2114 12.2909ZM36.5295 29.5945L36.6212 29.5945C38.2996 32.753 40.8936 34.3323 44.4032 34.3323C47.5464 34.3323 50.0756 33.123 51.9906 30.7045C53.9056 28.286 54.8631 25.116 54.8631 21.1945C54.8631 17.6698 54.0276 14.8812 52.3568 12.8288C50.6859 10.7766 48.3628 9.75045 45.3874 9.75045C43.5105 9.75045 41.7901 10.2196 40.2261 11.158C38.6621 12.0964 37.4604 13.4277 36.6212 15.152L36.5295 15.152L36.5295 10.3225L34.4239 10.3225L34.4239 44.5405L36.5295 44.5405L36.5295 29.5945L36.5295 29.5945ZM63.4117 29.686C64.8995 31.5018 66.9404 32.4096 69.5344 32.4096C72.1589 32.4096 74.7223 31.4407 77.2247 29.5028L77.2247 31.7459C74.7986 33.4701 72.0901 34.3323 69.0994 34.3323C66.0782 34.3323 63.6369 33.2489 61.7752 31.0821C59.9136 28.9154 58.9828 25.856 58.9828 21.904C58.9828 18.486 59.9556 15.6059 61.9011 13.2636C63.8466 10.9215 66.3757 9.75045 69.4886 9.75045C72.403 9.75045 74.6384 10.7728 76.1948 12.8174C77.7511 14.8621 78.5293 17.6545 78.5293 21.1945L78.5293 22.1329L61.1801 22.1329C61.1801 25.3526 61.924 27.8703 63.4117 29.686L63.4117 29.686ZM93.2923 34.3323C95.7032 34.3323 97.7784 33.7982 99.5179 32.7301L99.5179 30.5329C97.7784 31.7841 95.7337 32.4096 93.3838 32.4096C90.8203 32.4096 88.7566 31.4865 87.1926 29.6403C85.6286 27.7939 84.8466 25.3524 84.8466 22.3159C84.8466 19.1727 85.7011 16.6131 87.4101 14.6371C89.1191 12.6611 91.3468 11.6731 94.0933 11.6731C96.0922 11.6731 97.9309 12.1918 99.6094 13.2293L99.6094 10.849C97.9309 10.1166 96.199 9.75045 94.4137 9.75045C90.9653 9.75045 88.1424 10.9368 85.9451 13.3096C83.7479 15.6823 82.6493 18.7303 82.6493 22.4534C82.6493 25.9934 83.6258 28.8582 85.5789 31.0478C87.5321 33.2374 90.1032 34.3323 93.2923 34.3323L93.2923 34.3323ZM126.835 30.9563C128.826 33.207 131.531 34.3323 134.949 34.3323C138.382 34.3323 141.087 33.2031 143.063 30.9449C145.039 28.6865 146.027 25.7339 146.027 22.0872C146.027 18.2267 145.058 15.2054 143.12 13.0234C141.182 10.8415 138.542 9.75045 135.201 9.75045C131.798 9.75045 129.055 10.8491 126.972 13.0463C124.889 15.2436 123.848 18.2877 123.848 22.1787C123.848 25.7797 124.844 28.7056 126.835 30.9563L126.835 30.9563ZM118.355 33.76L107.346 22.2702L107.254 22.2702L107.254 33.76L105.148 33.76L105.148 10.3225L107.254 10.3225L107.254 21.5149L107.346 21.5149L118.217 10.3225L120.941 10.3225L109.589 21.7668L121.307 33.76L118.355 33.76L118.355 33.76ZM36.5295 23.8266L36.5295 20.8741C36.5295 18.4021 37.2772 16.2506 38.7726 14.4196C40.2679 12.5886 42.3813 11.6731 45.1127 11.6731C47.4014 11.6731 49.2325 12.5352 50.6059 14.2594C51.9791 15.9836 52.6657 18.3105 52.6657 21.2403C52.6657 24.5819 51.9181 27.2789 50.4227 29.3313C48.9273 31.3835 46.9818 32.4096 44.5862 32.4096C42.1753 32.4096 40.2298 31.5666 38.7497 29.8804C37.2696 28.1944 36.5295 26.1765 36.5295 23.8266L36.5295 23.8266ZM76.3322 20.2103C76.2406 17.5094 75.5921 15.4113 74.3867 13.9159C73.1812 12.4207 71.5179 11.6731 69.3969 11.6731C67.1997 11.6731 65.3801 12.4093 63.9382 13.8816C62.4962 15.3541 61.6074 17.4637 61.2716 20.2103L76.3322 20.2103L76.3322 20.2103ZM128.506 14.4653C130.146 12.6038 132.347 11.6731 135.109 11.6731C137.886 11.6731 140.034 12.5657 141.552 14.3509C143.07 16.1362 143.829 18.6996 143.829 22.0413C143.829 25.2914 143.066 27.832 141.541 29.6631C140.015 31.4941 137.84 32.4096 135.017 32.4096C132.24 32.4096 130.051 31.4789 128.449 29.6174C126.846 27.7558 126.045 25.2914 126.045 22.2244C126.045 18.9133 126.865 16.3269 128.506 14.4653L128.506 14.4653Z" id="Фреско" fill="#000000" fill-rule="evenodd" stroke="none" />
          </g>
          <path d="M15 60C15 35.1472 35.1473 15 60 15C84.8528 15 105 35.1472 105 60C105 84.8527 84.8528 105 60 105C35.1473 105 15 84.8527 15 60L15 60Z" id="Oval" fill="#FFE7D6" fill-rule="evenodd" stroke="#B8B8FF" stroke-width="3" />
          <g id="Slovo-F" transform="translate(37.500008 22.499998)">
            <path d="M22.5 15C11.25 15 0 15.1525 0 37.5C0 59.8476 11.25 60 22.5 60C33.75 60 45 59.8476 45 37.5C45 15.1525 33.75 15 22.5 15L22.5 15Z" id="Vector" fill="none" fill-rule="evenodd" stroke="#B8B8FF" stroke-width="3" />
            <g id="Group" transform="translate(20.62501 0)">
              <path d="M1.875 0L1.875 75" id="Vector-2" fill="none" fill-rule="evenodd" stroke="#B8B8FF" stroke-width="3" />
            </g>
          </g>
          <g id="Group" transform="translate(121.87503 88.125)">
            <path d="M0 1.875L146.25 1.875" id="Vector#1" fill="none" fill-rule="evenodd" stroke="#B8B8FF" stroke-width="1" />
          </g>
        </g>
      </g>
    </g>
  </g>
</svg>